<svg width="1196" height="335" viewBox="0 0 1196 335" fill="none" xmlns="http://www.w3.org/2000/svg">
<path d="M0 250C0 111.929 111.929 0 250 0H1196V334.441H0V250Z" fill="#FAC140"/>
<path d="M407 279C407 140.929 518.929 29 657 29H1196V334H407V279Z" fill="#69C7CF"/>
<path d="M800 302C800 163.929 911.929 52 1050 52H1196V334H800V302Z" fill="#3D566A"/>
<path d="M940.656 291.387V270.459H946.256C949.456 270.459 951.952 271.323 953.744 273.051C955.536 274.779 956.432 277.371 956.432 280.827C956.432 284.304 955.547 286.939 953.776 288.731C952.005 290.501 949.563 291.387 946.448 291.387H940.656ZM944.368 288.379H946C948.112 288.379 949.744 287.771 950.896 286.555C952.048 285.317 952.624 283.408 952.624 280.827C952.624 278.267 952.048 276.4 950.896 275.227C949.744 274.053 948.112 273.467 946 273.467H944.368V288.379ZM967.056 291.771C965.605 291.771 964.293 291.451 963.12 290.811C961.947 290.149 961.019 289.211 960.336 287.995C959.653 286.757 959.312 285.275 959.312 283.547C959.312 281.84 959.653 280.368 960.336 279.131C961.04 277.893 961.947 276.944 963.056 276.283C964.165 275.621 965.328 275.291 966.544 275.291C967.973 275.291 969.168 275.611 970.128 276.251C971.088 276.869 971.813 277.744 972.304 278.875C972.795 279.984 973.04 281.275 973.04 282.747C973.04 283.515 972.987 284.112 972.88 284.539H962.896C963.067 285.925 963.568 287.003 964.4 287.771C965.232 288.539 966.277 288.923 967.536 288.923C968.219 288.923 968.848 288.827 969.424 288.635C970.021 288.421 970.608 288.133 971.184 287.771L972.432 290.075C971.685 290.565 970.853 290.971 969.936 291.291C969.019 291.611 968.059 291.771 967.056 291.771ZM962.864 282.043H969.84C969.84 280.827 969.573 279.877 969.04 279.195C968.507 278.491 967.707 278.139 966.64 278.139C965.723 278.139 964.901 278.48 964.176 279.163C963.472 279.824 963.035 280.784 962.864 282.043ZM983.275 291.771C981.824 291.771 980.512 291.451 979.339 290.811C978.165 290.149 977.237 289.211 976.555 287.995C975.872 286.757 975.531 285.275 975.531 283.547C975.531 281.84 975.872 280.368 976.555 279.131C977.259 277.893 978.165 276.944 979.275 276.283C980.384 275.621 981.547 275.291 982.763 275.291C984.192 275.291 985.387 275.611 986.347 276.251C987.307 276.869 988.032 277.744 988.523 278.875C989.013 279.984 989.259 281.275 989.259 282.747C989.259 283.515 989.205 284.112 989.099 284.539H979.115C979.285 285.925 979.787 287.003 980.619 287.771C981.451 288.539 982.496 288.923 983.755 288.923C984.437 288.923 985.067 288.827 985.643 288.635C986.24 288.421 986.827 288.133 987.403 287.771L988.651 290.075C987.904 290.565 987.072 290.971 986.155 291.291C985.237 291.611 984.277 291.771 983.275 291.771ZM979.083 282.043H986.059C986.059 280.827 985.792 279.877 985.259 279.195C984.725 278.491 983.925 278.139 982.859 278.139C981.941 278.139 981.12 278.48 980.395 279.163C979.691 279.824 979.253 280.784 979.083 282.043ZM992.774 297.595V275.675H995.814L996.07 277.339H996.198C996.859 276.784 997.595 276.304 998.406 275.899C999.238 275.493 1000.08 275.291 1000.93 275.291C1002.9 275.291 1004.41 276.016 1005.48 277.467C1006.57 278.917 1007.11 280.859 1007.11 283.291C1007.11 285.083 1006.79 286.619 1006.15 287.899C1005.51 289.157 1004.68 290.117 1003.65 290.779C1002.65 291.44 1001.56 291.771 1000.39 291.771C999.707 291.771 999.024 291.621 998.342 291.323C997.659 291.003 996.998 290.576 996.358 290.043L996.454 292.667V297.595H992.774ZM999.622 288.731C1000.67 288.731 1001.54 288.272 1002.25 287.355C1002.95 286.437 1003.3 285.093 1003.3 283.323C1003.3 281.744 1003.03 280.517 1002.5 279.643C1001.97 278.768 1001.1 278.331 999.91 278.331C998.8 278.331 997.648 278.917 996.454 280.091V287.419C997.03 287.888 997.584 288.229 998.118 288.443C998.651 288.635 999.152 288.731 999.622 288.731ZM1017.56 291.387V270.459H1021.27V288.251H1029.98V291.387H1017.56ZM1039.62 291.771C1038.17 291.771 1036.86 291.451 1035.68 290.811C1034.51 290.149 1033.58 289.211 1032.9 287.995C1032.22 286.757 1031.87 285.275 1031.87 283.547C1031.87 281.84 1032.22 280.368 1032.9 279.131C1033.6 277.893 1034.51 276.944 1035.62 276.283C1036.73 275.621 1037.89 275.291 1039.11 275.291C1040.54 275.291 1041.73 275.611 1042.69 276.251C1043.65 276.869 1044.38 277.744 1044.87 278.875C1045.36 279.984 1045.6 281.275 1045.6 282.747C1045.6 283.515 1045.55 284.112 1045.44 284.539H1035.46C1035.63 285.925 1036.13 287.003 1036.96 287.771C1037.79 288.539 1038.84 288.923 1040.1 288.923C1040.78 288.923 1041.41 288.827 1041.99 288.635C1042.58 288.421 1043.17 288.133 1043.75 287.771L1044.99 290.075C1044.25 290.565 1043.42 290.971 1042.5 291.291C1041.58 291.611 1040.62 291.771 1039.62 291.771ZM1035.43 282.043H1042.4C1042.4 280.827 1042.14 279.877 1041.6 279.195C1041.07 278.491 1040.27 278.139 1039.2 278.139C1038.29 278.139 1037.46 278.48 1036.74 279.163C1036.03 279.824 1035.6 280.784 1035.43 282.043ZM1052.55 291.771C1051.18 291.771 1050.06 291.344 1049.19 290.491C1048.34 289.637 1047.91 288.528 1047.91 287.163C1047.91 285.477 1048.65 284.176 1050.12 283.259C1051.59 282.32 1053.94 281.68 1057.16 281.339C1057.14 280.507 1056.91 279.792 1056.49 279.195C1056.08 278.576 1055.34 278.267 1054.28 278.267C1053.51 278.267 1052.75 278.416 1052.01 278.715C1051.28 279.013 1050.57 279.376 1049.86 279.803L1048.52 277.339C1049.39 276.784 1050.37 276.304 1051.46 275.899C1052.57 275.493 1053.74 275.291 1054.98 275.291C1056.94 275.291 1058.41 275.877 1059.37 277.051C1060.35 278.203 1060.84 279.877 1060.84 282.075V291.387H1057.8L1057.54 289.659H1057.41C1056.71 290.256 1055.95 290.757 1055.14 291.163C1054.35 291.568 1053.49 291.771 1052.55 291.771ZM1053.73 288.891C1054.37 288.891 1054.95 288.741 1055.46 288.443C1056 288.123 1056.56 287.696 1057.16 287.163V283.643C1055.02 283.92 1053.54 284.336 1052.71 284.891C1051.88 285.424 1051.46 286.085 1051.46 286.875C1051.46 287.579 1051.68 288.091 1052.1 288.411C1052.53 288.731 1053.07 288.891 1053.73 288.891ZM1065.24 291.387V275.675H1068.28L1068.54 278.459H1068.67C1069.22 277.435 1069.89 276.656 1070.68 276.123C1071.47 275.568 1072.28 275.291 1073.11 275.291C1073.86 275.291 1074.46 275.397 1074.91 275.611L1074.27 278.811C1073.99 278.725 1073.73 278.661 1073.5 278.619C1073.26 278.576 1072.98 278.555 1072.63 278.555C1072.02 278.555 1071.36 278.8 1070.68 279.291C1070 279.76 1069.41 280.592 1068.92 281.787V291.387H1065.24ZM1077.18 291.387V275.675H1080.22L1080.48 277.787H1080.6C1081.31 277.104 1082.08 276.517 1082.91 276.027C1083.74 275.536 1084.69 275.291 1085.76 275.291C1087.44 275.291 1088.67 275.835 1089.44 276.923C1090.2 278.011 1090.59 279.547 1090.59 281.531V291.387H1086.91V282.011C1086.91 280.709 1086.72 279.792 1086.33 279.259C1085.95 278.725 1085.32 278.459 1084.44 278.459C1083.76 278.459 1083.15 278.629 1082.62 278.971C1082.11 279.291 1081.52 279.771 1080.86 280.411V291.387H1077.18ZM1095.09 291.387V275.675H1098.77V291.387H1095.09ZM1096.94 272.923C1096.28 272.923 1095.75 272.731 1095.34 272.347C1094.94 271.963 1094.73 271.451 1094.73 270.811C1094.73 270.192 1094.94 269.691 1095.34 269.307C1095.75 268.923 1096.28 268.731 1096.94 268.731C1097.6 268.731 1098.14 268.923 1098.54 269.307C1098.95 269.691 1099.15 270.192 1099.15 270.811C1099.15 271.451 1098.95 271.963 1098.54 272.347C1098.14 272.731 1097.6 272.923 1096.94 272.923ZM1103.46 291.387V275.675H1106.5L1106.76 277.787H1106.89C1107.59 277.104 1108.36 276.517 1109.19 276.027C1110.02 275.536 1110.97 275.291 1112.04 275.291C1113.72 275.291 1114.95 275.835 1115.72 276.923C1116.49 278.011 1116.87 279.547 1116.87 281.531V291.387H1113.19V282.011C1113.19 280.709 1113 279.792 1112.61 279.259C1112.23 278.725 1111.6 278.459 1110.73 278.459C1110.04 278.459 1109.43 278.629 1108.9 278.971C1108.39 279.291 1107.8 279.771 1107.14 280.411V291.387H1103.46ZM1126.84 298.331C1125.6 298.331 1124.48 298.181 1123.48 297.883C1122.5 297.584 1121.72 297.125 1121.14 296.507C1120.59 295.909 1120.31 295.152 1120.31 294.235C1120.31 292.933 1121.06 291.813 1122.55 290.875V290.747C1122.15 290.491 1121.8 290.149 1121.53 289.723C1121.27 289.296 1121.14 288.763 1121.14 288.123C1121.14 287.504 1121.31 286.949 1121.66 286.459C1122.02 285.947 1122.42 285.531 1122.87 285.211V285.083C1122.34 284.677 1121.86 284.112 1121.43 283.387C1121.03 282.661 1120.82 281.84 1120.82 280.923C1120.82 279.707 1121.11 278.683 1121.69 277.851C1122.26 277.019 1123.02 276.389 1123.96 275.963C1124.92 275.515 1125.94 275.291 1127.03 275.291C1127.46 275.291 1127.86 275.333 1128.25 275.419C1128.65 275.483 1129.02 275.568 1129.34 275.675H1134.97V278.395H1132.09C1132.34 278.693 1132.56 279.077 1132.73 279.547C1132.9 279.995 1132.98 280.496 1132.98 281.051C1132.98 282.203 1132.72 283.184 1132.18 283.995C1131.65 284.784 1130.94 285.381 1130.04 285.787C1129.14 286.192 1128.14 286.395 1127.03 286.395C1126.69 286.395 1126.34 286.363 1125.98 286.299C1125.61 286.235 1125.25 286.128 1124.89 285.979C1124.65 286.192 1124.46 286.405 1124.31 286.619C1124.18 286.832 1124.12 287.12 1124.12 287.483C1124.12 287.931 1124.3 288.283 1124.66 288.539C1125.05 288.795 1125.72 288.923 1126.68 288.923H1129.46C1131.36 288.923 1132.79 289.232 1133.75 289.851C1134.73 290.448 1135.22 291.429 1135.22 292.795C1135.22 293.819 1134.88 294.747 1134.2 295.579C1133.52 296.432 1132.55 297.104 1131.29 297.595C1130.03 298.085 1128.55 298.331 1126.84 298.331ZM1127.03 284.091C1127.78 284.091 1128.42 283.813 1128.95 283.259C1129.48 282.704 1129.75 281.925 1129.75 280.923C1129.75 279.941 1129.48 279.184 1128.95 278.651C1128.44 278.096 1127.8 277.819 1127.03 277.819C1126.26 277.819 1125.61 278.085 1125.08 278.619C1124.55 279.152 1124.28 279.92 1124.28 280.923C1124.28 281.925 1124.55 282.704 1125.08 283.259C1125.61 283.813 1126.26 284.091 1127.03 284.091ZM1127.42 295.931C1128.67 295.931 1129.7 295.675 1130.49 295.163C1131.28 294.651 1131.67 294.064 1131.67 293.403C1131.67 292.784 1131.43 292.368 1130.94 292.155C1130.47 291.941 1129.78 291.835 1128.89 291.835H1126.74C1125.89 291.835 1125.18 291.76 1124.6 291.611C1123.79 292.229 1123.38 292.923 1123.38 293.691C1123.38 294.395 1123.75 294.939 1124.47 295.323C1125.2 295.728 1126.18 295.931 1127.42 295.931Z" fill="white"/>
<path d="M494.656 291.387V270.459H498.848L502.56 280.699C502.795 281.36 503.019 282.043 503.232 282.747C503.467 283.429 503.691 284.112 503.904 284.795H504.032C504.267 284.112 504.491 283.429 504.704 282.747C504.917 282.043 505.131 281.36 505.344 280.699L508.96 270.459H513.184V291.387H509.76V281.819C509.76 281.157 509.781 280.443 509.824 279.675C509.888 278.885 509.952 278.096 510.016 277.307C510.101 276.517 510.176 275.803 510.24 275.163H510.112L508.416 280.027L504.992 289.435H502.784L499.328 280.027L497.664 275.163H497.536C497.6 275.803 497.664 276.517 497.728 277.307C497.813 278.096 497.877 278.885 497.92 279.675C497.984 280.443 498.016 281.157 498.016 281.819V291.387H494.656ZM521.988 291.771C520.622 291.771 519.502 291.344 518.628 290.491C517.774 289.637 517.348 288.528 517.348 287.163C517.348 285.477 518.084 284.176 519.556 283.259C521.028 282.32 523.374 281.68 526.596 281.339C526.574 280.507 526.35 279.792 525.924 279.195C525.518 278.576 524.782 278.267 523.716 278.267C522.948 278.267 522.19 278.416 521.444 278.715C520.718 279.013 520.004 279.376 519.3 279.803L517.956 277.339C518.83 276.784 519.812 276.304 520.9 275.899C522.009 275.493 523.182 275.291 524.42 275.291C526.382 275.291 527.844 275.877 528.804 277.051C529.785 278.203 530.276 279.877 530.276 282.075V291.387H527.236L526.98 289.659H526.852C526.148 290.256 525.39 290.757 524.58 291.163C523.79 291.568 522.926 291.771 521.988 291.771ZM523.172 288.891C523.812 288.891 524.388 288.741 524.9 288.443C525.433 288.123 525.998 287.696 526.596 287.163V283.643C524.462 283.92 522.98 284.336 522.148 284.891C521.316 285.424 520.9 286.085 520.9 286.875C520.9 287.579 521.113 288.091 521.54 288.411C521.966 288.731 522.51 288.891 523.172 288.891ZM541.24 291.771C539.81 291.771 538.52 291.451 537.368 290.811C536.237 290.149 535.33 289.211 534.648 287.995C533.986 286.757 533.656 285.275 533.656 283.547C533.656 281.797 534.018 280.315 534.744 279.099C535.469 277.861 536.429 276.923 537.624 276.283C538.84 275.621 540.141 275.291 541.528 275.291C542.53 275.291 543.405 275.461 544.152 275.803C544.898 276.144 545.56 276.56 546.136 277.051L544.344 279.451C543.938 279.088 543.522 278.811 543.096 278.619C542.669 278.405 542.21 278.299 541.72 278.299C540.461 278.299 539.426 278.779 538.616 279.739C537.826 280.699 537.432 281.968 537.432 283.547C537.432 285.104 537.816 286.363 538.584 287.323C539.373 288.283 540.386 288.763 541.624 288.763C542.242 288.763 542.818 288.635 543.352 288.379C543.906 288.101 544.408 287.781 544.856 287.419L546.36 289.851C545.634 290.491 544.824 290.971 543.928 291.291C543.032 291.611 542.136 291.771 541.24 291.771ZM549.461 291.387V268.795H553.141V274.619L553.013 277.659C553.674 277.04 554.41 276.496 555.221 276.027C556.032 275.536 556.97 275.291 558.037 275.291C559.722 275.291 560.949 275.835 561.717 276.923C562.485 278.011 562.869 279.547 562.869 281.531V291.387H559.189V282.011C559.189 280.709 558.997 279.792 558.613 279.259C558.229 278.725 557.6 278.459 556.725 278.459C556.042 278.459 555.434 278.629 554.901 278.971C554.389 279.291 553.802 279.771 553.141 280.411V291.387H549.461ZM567.305 291.387V275.675H570.985V291.387H567.305ZM569.161 272.923C568.499 272.923 567.966 272.731 567.561 272.347C567.155 271.963 566.953 271.451 566.953 270.811C566.953 270.192 567.155 269.691 567.561 269.307C567.966 268.923 568.499 268.731 569.161 268.731C569.822 268.731 570.355 268.923 570.761 269.307C571.166 269.691 571.369 270.192 571.369 270.811C571.369 271.451 571.166 271.963 570.761 272.347C570.355 272.731 569.822 272.923 569.161 272.923ZM575.68 291.387V275.675H578.72L578.976 277.787H579.104C579.808 277.104 580.576 276.517 581.408 276.027C582.24 275.536 583.189 275.291 584.256 275.291C585.941 275.291 587.168 275.835 587.936 276.923C588.704 278.011 589.088 279.547 589.088 281.531V291.387H585.408V282.011C585.408 280.709 585.216 279.792 584.832 279.259C584.448 278.725 583.818 278.459 582.944 278.459C582.261 278.459 581.653 278.629 581.12 278.971C580.608 279.291 580.021 279.771 579.36 280.411V291.387H575.68ZM600.306 291.771C598.855 291.771 597.543 291.451 596.37 290.811C595.197 290.149 594.269 289.211 593.586 287.995C592.903 286.757 592.562 285.275 592.562 283.547C592.562 281.84 592.903 280.368 593.586 279.131C594.29 277.893 595.197 276.944 596.306 276.283C597.415 275.621 598.578 275.291 599.794 275.291C601.223 275.291 602.418 275.611 603.378 276.251C604.338 276.869 605.063 277.744 605.554 278.875C606.045 279.984 606.29 281.275 606.29 282.747C606.29 283.515 606.237 284.112 606.13 284.539H596.146C596.317 285.925 596.818 287.003 597.65 287.771C598.482 288.539 599.527 288.923 600.786 288.923C601.469 288.923 602.098 288.827 602.674 288.635C603.271 288.421 603.858 288.133 604.434 287.771L605.682 290.075C604.935 290.565 604.103 290.971 603.186 291.291C602.269 291.611 601.309 291.771 600.306 291.771ZM596.114 282.043H603.09C603.09 280.827 602.823 279.877 602.29 279.195C601.757 278.491 600.957 278.139 599.89 278.139C598.973 278.139 598.151 278.48 597.426 279.163C596.722 279.824 596.285 280.784 596.114 282.043ZM616.531 291.387V270.459H620.243V288.251H628.947V291.387H616.531ZM638.587 291.771C637.137 291.771 635.825 291.451 634.651 290.811C633.478 290.149 632.55 289.211 631.867 287.995C631.185 286.757 630.843 285.275 630.843 283.547C630.843 281.84 631.185 280.368 631.867 279.131C632.571 277.893 633.478 276.944 634.587 276.283C635.697 275.621 636.859 275.291 638.075 275.291C639.505 275.291 640.699 275.611 641.659 276.251C642.619 276.869 643.345 277.744 643.835 278.875C644.326 279.984 644.571 281.275 644.571 282.747C644.571 283.515 644.518 284.112 644.411 284.539H634.427C634.598 285.925 635.099 287.003 635.931 287.771C636.763 288.539 637.809 288.923 639.067 288.923C639.75 288.923 640.379 288.827 640.955 288.635C641.553 288.421 642.139 288.133 642.715 287.771L643.963 290.075C643.217 290.565 642.385 290.971 641.467 291.291C640.55 291.611 639.59 291.771 638.587 291.771ZM634.395 282.043H641.371C641.371 280.827 641.105 279.877 640.571 279.195C640.038 278.491 639.238 278.139 638.171 278.139C637.254 278.139 636.433 278.48 635.707 279.163C635.003 279.824 634.566 280.784 634.395 282.043ZM651.519 291.771C650.154 291.771 649.034 291.344 648.159 290.491C647.306 289.637 646.879 288.528 646.879 287.163C646.879 285.477 647.615 284.176 649.087 283.259C650.559 282.32 652.906 281.68 656.127 281.339C656.106 280.507 655.882 279.792 655.455 279.195C655.05 278.576 654.314 278.267 653.247 278.267C652.479 278.267 651.722 278.416 650.975 278.715C650.25 279.013 649.535 279.376 648.831 279.803L647.487 277.339C648.362 276.784 649.343 276.304 650.431 275.899C651.54 275.493 652.714 275.291 653.951 275.291C655.914 275.291 657.375 275.877 658.335 277.051C659.316 278.203 659.807 279.877 659.807 282.075V291.387H656.767L656.511 289.659H656.383C655.679 290.256 654.922 290.757 654.111 291.163C653.322 291.568 652.458 291.771 651.519 291.771ZM652.703 288.891C653.343 288.891 653.919 288.741 654.431 288.443C654.964 288.123 655.53 287.696 656.127 287.163V283.643C653.994 283.92 652.511 284.336 651.679 284.891C650.847 285.424 650.431 286.085 650.431 286.875C650.431 287.579 650.644 288.091 651.071 288.411C651.498 288.731 652.042 288.891 652.703 288.891ZM664.211 291.387V275.675H667.251L667.507 278.459H667.635C668.19 277.435 668.862 276.656 669.651 276.123C670.44 275.568 671.251 275.291 672.083 275.291C672.83 275.291 673.427 275.397 673.875 275.611L673.235 278.811C672.958 278.725 672.702 278.661 672.467 278.619C672.232 278.576 671.944 278.555 671.603 278.555C670.984 278.555 670.334 278.8 669.651 279.291C668.968 279.76 668.382 280.592 667.891 281.787V291.387H664.211ZM676.149 291.387V275.675H679.189L679.445 277.787H679.573C680.277 277.104 681.045 276.517 681.877 276.027C682.709 275.536 683.658 275.291 684.725 275.291C686.41 275.291 687.637 275.835 688.405 276.923C689.173 278.011 689.557 279.547 689.557 281.531V291.387H685.877V282.011C685.877 280.709 685.685 279.792 685.301 279.259C684.917 278.725 684.287 278.459 683.413 278.459C682.73 278.459 682.122 278.629 681.589 278.971C681.077 279.291 680.49 279.771 679.829 280.411V291.387H676.149ZM694.055 291.387V275.675H697.735V291.387H694.055ZM695.911 272.923C695.249 272.923 694.716 272.731 694.311 272.347C693.905 271.963 693.703 271.451 693.703 270.811C693.703 270.192 693.905 269.691 694.311 269.307C694.716 268.923 695.249 268.731 695.911 268.731C696.572 268.731 697.105 268.923 697.511 269.307C697.916 269.691 698.119 270.192 698.119 270.811C698.119 271.451 697.916 271.963 697.511 272.347C697.105 272.731 696.572 272.923 695.911 272.923ZM702.43 291.387V275.675H705.47L705.726 277.787H705.854C706.558 277.104 707.326 276.517 708.158 276.027C708.99 275.536 709.939 275.291 711.006 275.291C712.691 275.291 713.918 275.835 714.686 276.923C715.454 278.011 715.838 279.547 715.838 281.531V291.387H712.158V282.011C712.158 280.709 711.966 279.792 711.582 279.259C711.198 278.725 710.568 278.459 709.694 278.459C709.011 278.459 708.403 278.629 707.87 278.971C707.358 279.291 706.771 279.771 706.11 280.411V291.387H702.43ZM725.808 298.331C724.571 298.331 723.451 298.181 722.448 297.883C721.467 297.584 720.688 297.125 720.112 296.507C719.557 295.909 719.28 295.152 719.28 294.235C719.28 292.933 720.027 291.813 721.52 290.875V290.747C721.115 290.491 720.773 290.149 720.496 289.723C720.24 289.296 720.112 288.763 720.112 288.123C720.112 287.504 720.283 286.949 720.624 286.459C720.987 285.947 721.392 285.531 721.84 285.211V285.083C721.307 284.677 720.827 284.112 720.4 283.387C719.995 282.661 719.792 281.84 719.792 280.923C719.792 279.707 720.08 278.683 720.656 277.851C721.232 277.019 721.989 276.389 722.928 275.963C723.888 275.515 724.912 275.291 726 275.291C726.427 275.291 726.832 275.333 727.216 275.419C727.621 275.483 727.984 275.568 728.304 275.675H733.936V278.395H731.056C731.312 278.693 731.525 279.077 731.696 279.547C731.867 279.995 731.952 280.496 731.952 281.051C731.952 282.203 731.685 283.184 731.152 283.995C730.619 284.784 729.904 285.381 729.008 285.787C728.112 286.192 727.109 286.395 726 286.395C725.659 286.395 725.307 286.363 724.944 286.299C724.581 286.235 724.219 286.128 723.856 285.979C723.621 286.192 723.429 286.405 723.28 286.619C723.152 286.832 723.088 287.12 723.088 287.483C723.088 287.931 723.269 288.283 723.632 288.539C724.016 288.795 724.688 288.923 725.648 288.923H728.432C730.331 288.923 731.76 289.232 732.72 289.851C733.701 290.448 734.192 291.429 734.192 292.795C734.192 293.819 733.851 294.747 733.168 295.579C732.485 296.432 731.515 297.104 730.256 297.595C728.997 298.085 727.515 298.331 725.808 298.331ZM726 284.091C726.747 284.091 727.387 283.813 727.92 283.259C728.453 282.704 728.72 281.925 728.72 280.923C728.72 279.941 728.453 279.184 727.92 278.651C727.408 278.096 726.768 277.819 726 277.819C725.232 277.819 724.581 278.085 724.048 278.619C723.515 279.152 723.248 279.92 723.248 280.923C723.248 281.925 723.515 282.704 724.048 283.259C724.581 283.813 725.232 284.091 726 284.091ZM726.384 295.931C727.643 295.931 728.667 295.675 729.456 295.163C730.245 294.651 730.64 294.064 730.64 293.403C730.64 292.784 730.395 292.368 729.904 292.155C729.435 291.941 728.752 291.835 727.856 291.835H725.712C724.859 291.835 724.144 291.76 723.568 291.611C722.757 292.229 722.352 292.923 722.352 293.691C722.352 294.395 722.715 294.939 723.44 295.323C724.165 295.728 725.147 295.931 726.384 295.931Z" fill="white"/>
<path d="M84.944 280.251L84.208 282.811H89.552L88.816 280.251C88.4747 279.141 88.144 278 87.824 276.827C87.5253 275.653 87.2267 274.491 86.928 273.339H86.8C86.5227 274.512 86.224 275.685 85.904 276.859C85.6053 278.011 85.2853 279.141 84.944 280.251ZM77.936 291.387L84.752 270.459H89.104L95.92 291.387H92.016L90.384 285.723H83.344L81.712 291.387H77.936ZM98.1798 291.387V275.675H101.22L101.476 278.459H101.604C102.158 277.435 102.83 276.656 103.62 276.123C104.409 275.568 105.22 275.291 106.052 275.291C106.798 275.291 107.396 275.397 107.844 275.611L107.204 278.811C106.926 278.725 106.67 278.661 106.436 278.619C106.201 278.576 105.913 278.555 105.572 278.555C104.953 278.555 104.302 278.8 103.62 279.291C102.937 279.76 102.35 280.592 101.86 281.787V291.387H98.1798ZM115.653 291.771C113.84 291.771 112.549 291.248 111.781 290.203C111.035 289.136 110.661 287.76 110.661 286.075V278.587H108.421V275.835L110.853 275.675L111.301 271.387H114.373V275.675H118.373V278.587H114.373V286.075C114.373 287.909 115.109 288.827 116.581 288.827C116.859 288.827 117.147 288.795 117.445 288.731C117.744 288.645 118 288.56 118.213 288.475L118.853 291.195C118.427 291.344 117.936 291.472 117.381 291.579C116.848 291.707 116.272 291.771 115.653 291.771ZM121.68 291.387V275.675H125.36V291.387H121.68ZM123.536 272.923C122.874 272.923 122.341 272.731 121.936 272.347C121.53 271.963 121.328 271.451 121.328 270.811C121.328 270.192 121.53 269.691 121.936 269.307C122.341 268.923 122.874 268.731 123.536 268.731C124.197 268.731 124.73 268.923 125.136 269.307C125.541 269.691 125.744 270.192 125.744 270.811C125.744 271.451 125.541 271.963 125.136 272.347C124.73 272.731 124.197 272.923 123.536 272.923ZM130.695 291.387V278.587H128.583V275.835L130.695 275.675V274.043C130.695 272.4 131.1 271.056 131.911 270.011C132.721 268.944 134.055 268.411 135.911 268.411C136.465 268.411 136.999 268.464 137.511 268.571C138.023 268.677 138.449 268.805 138.791 268.955L138.087 271.707C137.511 271.451 136.935 271.323 136.359 271.323C135.036 271.323 134.375 272.208 134.375 273.979V275.675H137.447V278.587H134.375V291.387H130.695ZM140.211 291.387V275.675H143.891V291.387H140.211ZM142.067 272.923C141.406 272.923 140.872 272.731 140.467 272.347C140.062 271.963 139.859 271.451 139.859 270.811C139.859 270.192 140.062 269.691 140.467 269.307C140.872 268.923 141.406 268.731 142.067 268.731C142.728 268.731 143.262 268.923 143.667 269.307C144.072 269.691 144.275 270.192 144.275 270.811C144.275 271.451 144.072 271.963 143.667 272.347C143.262 272.731 142.728 272.923 142.067 272.923ZM155.146 291.771C153.717 291.771 152.426 291.451 151.274 290.811C150.143 290.149 149.237 289.211 148.554 287.995C147.893 286.757 147.562 285.275 147.562 283.547C147.562 281.797 147.925 280.315 148.65 279.099C149.375 277.861 150.335 276.923 151.53 276.283C152.746 275.621 154.047 275.291 155.434 275.291C156.437 275.291 157.311 275.461 158.058 275.803C158.805 276.144 159.466 276.56 160.042 277.051L158.25 279.451C157.845 279.088 157.429 278.811 157.002 278.619C156.575 278.405 156.117 278.299 155.626 278.299C154.367 278.299 153.333 278.779 152.522 279.739C151.733 280.699 151.338 281.968 151.338 283.547C151.338 285.104 151.722 286.363 152.49 287.323C153.279 288.283 154.293 288.763 155.53 288.763C156.149 288.763 156.725 288.635 157.258 288.379C157.813 288.101 158.314 287.781 158.762 287.419L160.266 289.851C159.541 290.491 158.73 290.971 157.834 291.291C156.938 291.611 156.042 291.771 155.146 291.771ZM163.367 291.387V275.675H167.047V291.387H163.367ZM165.223 272.923C164.562 272.923 164.029 272.731 163.623 272.347C163.218 271.963 163.015 271.451 163.015 270.811C163.015 270.192 163.218 269.691 163.623 269.307C164.029 268.923 164.562 268.731 165.223 268.731C165.885 268.731 166.418 268.923 166.823 269.307C167.229 269.691 167.431 270.192 167.431 270.811C167.431 271.451 167.229 271.963 166.823 272.347C166.418 272.731 165.885 272.923 165.223 272.923ZM175.55 291.771C174.185 291.771 173.065 291.344 172.19 290.491C171.337 289.637 170.91 288.528 170.91 287.163C170.91 285.477 171.646 284.176 173.118 283.259C174.59 282.32 176.937 281.68 180.158 281.339C180.137 280.507 179.913 279.792 179.486 279.195C179.081 278.576 178.345 278.267 177.278 278.267C176.51 278.267 175.753 278.416 175.006 278.715C174.281 279.013 173.566 279.376 172.862 279.803L171.518 277.339C172.393 276.784 173.374 276.304 174.462 275.899C175.572 275.493 176.745 275.291 177.982 275.291C179.945 275.291 181.406 275.877 182.366 277.051C183.348 278.203 183.838 279.877 183.838 282.075V291.387H180.798L180.542 289.659H180.414C179.71 290.256 178.953 290.757 178.142 291.163C177.353 291.568 176.489 291.771 175.55 291.771ZM176.734 288.891C177.374 288.891 177.95 288.741 178.462 288.443C178.996 288.123 179.561 287.696 180.158 287.163V283.643C178.025 283.92 176.542 284.336 175.71 284.891C174.878 285.424 174.462 286.085 174.462 286.875C174.462 287.579 174.676 288.091 175.102 288.411C175.529 288.731 176.073 288.891 176.734 288.891ZM191.826 291.771C190.525 291.771 189.597 291.376 189.042 290.587C188.509 289.797 188.242 288.72 188.242 287.355V268.795H191.922V287.547C191.922 287.995 192.008 288.315 192.178 288.507C192.349 288.677 192.53 288.763 192.722 288.763C192.808 288.763 192.882 288.763 192.946 288.763C193.032 288.741 193.149 288.72 193.298 288.699L193.778 291.451C193.565 291.536 193.288 291.611 192.946 291.675C192.626 291.739 192.253 291.771 191.826 291.771ZM203.656 291.387V270.459H207.368V291.387H203.656ZM212.367 291.387V275.675H215.407L215.663 277.787H215.791C216.495 277.104 217.263 276.517 218.095 276.027C218.927 275.536 219.877 275.291 220.943 275.291C222.629 275.291 223.855 275.835 224.623 276.923C225.391 278.011 225.775 279.547 225.775 281.531V291.387H222.095V282.011C222.095 280.709 221.903 279.792 221.519 279.259C221.135 278.725 220.506 278.459 219.631 278.459C218.949 278.459 218.341 278.629 217.807 278.971C217.295 279.291 216.709 279.771 216.047 280.411V291.387H212.367ZM235.81 291.771C233.996 291.771 232.706 291.248 231.938 290.203C231.191 289.136 230.818 287.76 230.818 286.075V278.587H228.578V275.835L231.01 275.675L231.458 271.387H234.53V275.675H238.53V278.587H234.53V286.075C234.53 287.909 235.266 288.827 236.738 288.827C237.015 288.827 237.303 288.795 237.602 288.731C237.9 288.645 238.156 288.56 238.37 288.475L239.01 291.195C238.583 291.344 238.092 291.472 237.538 291.579C237.004 291.707 236.428 291.771 235.81 291.771ZM248.056 291.771C246.605 291.771 245.293 291.451 244.12 290.811C242.947 290.149 242.019 289.211 241.336 287.995C240.653 286.757 240.312 285.275 240.312 283.547C240.312 281.84 240.653 280.368 241.336 279.131C242.04 277.893 242.947 276.944 244.056 276.283C245.165 275.621 246.328 275.291 247.544 275.291C248.973 275.291 250.168 275.611 251.128 276.251C252.088 276.869 252.813 277.744 253.304 278.875C253.795 279.984 254.04 281.275 254.04 282.747C254.04 283.515 253.987 284.112 253.88 284.539H243.896C244.067 285.925 244.568 287.003 245.4 287.771C246.232 288.539 247.277 288.923 248.536 288.923C249.219 288.923 249.848 288.827 250.424 288.635C251.021 288.421 251.608 288.133 252.184 287.771L253.432 290.075C252.685 290.565 251.853 290.971 250.936 291.291C250.019 291.611 249.059 291.771 248.056 291.771ZM243.864 282.043H250.84C250.84 280.827 250.573 279.877 250.04 279.195C249.507 278.491 248.707 278.139 247.64 278.139C246.723 278.139 245.901 278.48 245.176 279.163C244.472 279.824 244.035 280.784 243.864 282.043ZM261.139 291.771C259.837 291.771 258.909 291.376 258.355 290.587C257.821 289.797 257.555 288.72 257.555 287.355V268.795H261.235V287.547C261.235 287.995 261.32 288.315 261.491 288.507C261.661 288.677 261.843 288.763 262.035 288.763C262.12 288.763 262.195 288.763 262.259 288.763C262.344 288.741 262.461 288.72 262.611 288.699L263.091 291.451C262.877 291.536 262.6 291.611 262.259 291.675C261.939 291.739 261.565 291.771 261.139 291.771ZM269.826 291.771C268.525 291.771 267.597 291.376 267.042 290.587C266.509 289.797 266.242 288.72 266.242 287.355V268.795H269.922V287.547C269.922 287.995 270.008 288.315 270.178 288.507C270.349 288.677 270.53 288.763 270.722 288.763C270.808 288.763 270.882 288.763 270.946 288.763C271.032 288.741 271.149 288.72 271.298 288.699L271.778 291.451C271.565 291.536 271.288 291.611 270.946 291.675C270.626 291.739 270.253 291.771 269.826 291.771ZM274.93 291.387V275.675H278.61V291.387H274.93ZM276.786 272.923C276.124 272.923 275.591 272.731 275.186 272.347C274.78 271.963 274.578 271.451 274.578 270.811C274.578 270.192 274.78 269.691 275.186 269.307C275.591 268.923 276.124 268.731 276.786 268.731C277.447 268.731 277.98 268.923 278.386 269.307C278.791 269.691 278.994 270.192 278.994 270.811C278.994 271.451 278.791 271.963 278.386 272.347C277.98 272.731 277.447 272.923 276.786 272.923ZM288.777 298.331C287.539 298.331 286.419 298.181 285.417 297.883C284.435 297.584 283.657 297.125 283.081 296.507C282.526 295.909 282.249 295.152 282.249 294.235C282.249 292.933 282.995 291.813 284.489 290.875V290.747C284.083 290.491 283.742 290.149 283.465 289.723C283.209 289.296 283.081 288.763 283.081 288.123C283.081 287.504 283.251 286.949 283.593 286.459C283.955 285.947 284.361 285.531 284.809 285.211V285.083C284.275 284.677 283.795 284.112 283.369 283.387C282.963 282.661 282.761 281.84 282.761 280.923C282.761 279.707 283.049 278.683 283.625 277.851C284.201 277.019 284.958 276.389 285.897 275.963C286.857 275.515 287.881 275.291 288.969 275.291C289.395 275.291 289.801 275.333 290.185 275.419C290.59 275.483 290.953 275.568 291.273 275.675H296.905V278.395H294.025C294.281 278.693 294.494 279.077 294.665 279.547C294.835 279.995 294.921 280.496 294.921 281.051C294.921 282.203 294.654 283.184 294.121 283.995C293.587 284.784 292.873 285.381 291.977 285.787C291.081 286.192 290.078 286.395 288.969 286.395C288.627 286.395 288.275 286.363 287.913 286.299C287.55 286.235 287.187 286.128 286.825 285.979C286.59 286.192 286.398 286.405 286.249 286.619C286.121 286.832 286.057 287.12 286.057 287.483C286.057 287.931 286.238 288.283 286.601 288.539C286.985 288.795 287.657 288.923 288.617 288.923H291.401C293.299 288.923 294.729 289.232 295.689 289.851C296.67 290.448 297.161 291.429 297.161 292.795C297.161 293.819 296.819 294.747 296.137 295.579C295.454 296.432 294.483 297.104 293.225 297.595C291.966 298.085 290.483 298.331 288.777 298.331ZM288.969 284.091C289.715 284.091 290.355 283.813 290.889 283.259C291.422 282.704 291.689 281.925 291.689 280.923C291.689 279.941 291.422 279.184 290.889 278.651C290.377 278.096 289.737 277.819 288.969 277.819C288.201 277.819 287.55 278.085 287.017 278.619C286.483 279.152 286.217 279.92 286.217 280.923C286.217 281.925 286.483 282.704 287.017 283.259C287.55 283.813 288.201 284.091 288.969 284.091ZM289.353 295.931C290.611 295.931 291.635 295.675 292.425 295.163C293.214 294.651 293.609 294.064 293.609 293.403C293.609 292.784 293.363 292.368 292.873 292.155C292.403 291.941 291.721 291.835 290.825 291.835H288.681C287.827 291.835 287.113 291.76 286.537 291.611C285.726 292.229 285.321 292.923 285.321 293.691C285.321 294.395 285.683 294.939 286.409 295.323C287.134 295.728 288.115 295.931 289.353 295.931ZM306.15 291.771C304.699 291.771 303.387 291.451 302.214 290.811C301.04 290.149 300.112 289.211 299.43 287.995C298.747 286.757 298.406 285.275 298.406 283.547C298.406 281.84 298.747 280.368 299.43 279.131C300.134 277.893 301.04 276.944 302.15 276.283C303.259 275.621 304.422 275.291 305.638 275.291C307.067 275.291 308.262 275.611 309.222 276.251C310.182 276.869 310.907 277.744 311.398 278.875C311.888 279.984 312.134 281.275 312.134 282.747C312.134 283.515 312.08 284.112 311.974 284.539H301.99C302.16 285.925 302.662 287.003 303.494 287.771C304.326 288.539 305.371 288.923 306.63 288.923C307.312 288.923 307.942 288.827 308.518 288.635C309.115 288.421 309.702 288.133 310.278 287.771L311.526 290.075C310.779 290.565 309.947 290.971 309.03 291.291C308.112 291.611 307.152 291.771 306.15 291.771ZM301.958 282.043H308.934C308.934 280.827 308.667 279.877 308.134 279.195C307.6 278.491 306.8 278.139 305.734 278.139C304.816 278.139 303.995 278.48 303.27 279.163C302.566 279.824 302.128 280.784 301.958 282.043ZM315.649 291.387V275.675H318.689L318.945 277.787H319.073C319.777 277.104 320.545 276.517 321.377 276.027C322.209 275.536 323.158 275.291 324.225 275.291C325.91 275.291 327.137 275.835 327.905 276.923C328.673 278.011 329.057 279.547 329.057 281.531V291.387H325.377V282.011C325.377 280.709 325.185 279.792 324.801 279.259C324.417 278.725 323.787 278.459 322.913 278.459C322.23 278.459 321.622 278.629 321.089 278.971C320.577 279.291 319.99 279.771 319.329 280.411V291.387H315.649ZM340.115 291.771C338.685 291.771 337.395 291.451 336.243 290.811C335.112 290.149 334.205 289.211 333.523 287.995C332.861 286.757 332.531 285.275 332.531 283.547C332.531 281.797 332.893 280.315 333.619 279.099C334.344 277.861 335.304 276.923 336.499 276.283C337.715 275.621 339.016 275.291 340.403 275.291C341.405 275.291 342.28 275.461 343.027 275.803C343.773 276.144 344.435 276.56 345.011 277.051L343.219 279.451C342.813 279.088 342.397 278.811 341.971 278.619C341.544 278.405 341.085 278.299 340.595 278.299C339.336 278.299 338.301 278.779 337.491 279.739C336.701 280.699 336.307 281.968 336.307 283.547C336.307 285.104 336.691 286.363 337.459 287.323C338.248 288.283 339.261 288.763 340.499 288.763C341.117 288.763 341.693 288.635 342.227 288.379C342.781 288.101 343.283 287.781 343.731 287.419L345.235 289.851C344.509 290.491 343.699 290.971 342.803 291.291C341.907 291.611 341.011 291.771 340.115 291.771ZM354.275 291.771C352.824 291.771 351.512 291.451 350.339 290.811C349.165 290.149 348.237 289.211 347.555 287.995C346.872 286.757 346.531 285.275 346.531 283.547C346.531 281.84 346.872 280.368 347.555 279.131C348.259 277.893 349.165 276.944 350.275 276.283C351.384 275.621 352.547 275.291 353.763 275.291C355.192 275.291 356.387 275.611 357.347 276.251C358.307 276.869 359.032 277.744 359.523 278.875C360.013 279.984 360.259 281.275 360.259 282.747C360.259 283.515 360.205 284.112 360.099 284.539H350.115C350.285 285.925 350.787 287.003 351.619 287.771C352.451 288.539 353.496 288.923 354.755 288.923C355.437 288.923 356.067 288.827 356.643 288.635C357.24 288.421 357.827 288.133 358.403 287.771L359.651 290.075C358.904 290.565 358.072 290.971 357.155 291.291C356.237 291.611 355.277 291.771 354.275 291.771ZM350.083 282.043H357.059C357.059 280.827 356.792 279.877 356.259 279.195C355.725 278.491 354.925 278.139 353.859 278.139C352.941 278.139 352.12 278.48 351.395 279.163C350.691 279.824 350.253 280.784 350.083 282.043Z" fill="white"/>
<path fill-rule="evenodd" clip-rule="evenodd" d="M1071.08 235H1055.78C1055.15 234.969 1055.12 234.943 1054.67 234.487L1041.03 219.249C1040.6 218.727 1040.6 218.684 1040.57 218.01V207.525C1040.63 206.14 1042.22 205.239 1043.19 206.23C1043.51 206.549 1043.68 206.8 1043.71 207.525V217.284L1056.43 231.496H1070.43L1075.4 225.954C1072.87 222.641 1074.61 216.029 1079.36 215.929C1079.43 215.928 1079.43 215.928 1079.5 215.929C1083.06 216.004 1085.97 220.692 1084.3 224.573C1083.25 226.999 1080.59 228.227 1078.23 227.738L1072.19 234.487C1071.73 234.965 1071.69 234.97 1071.08 235ZM1022.42 110C1029.88 110.079 1036.74 117.212 1036.81 126.079C1036.89 157.026 1036.89 187.974 1036.81 218.921C1036.76 225.282 1033.06 231.4 1027.8 233.802C1019.58 237.556 1008.73 231.202 1007.88 220.168C1000.12 221.858 991.506 217.713 987.277 210.049C984.874 205.694 983.912 200.425 984.55 195.336C984.55 195.336 982.903 193.955 981.735 192.716C975.093 185.669 972.357 174.42 974.993 164.537C976.578 158.591 980.006 153.302 984.547 149.706C984.547 149.706 984.366 148.07 984.351 146.791C984.237 136.47 991.372 126.625 1000.62 124.777C1003.01 124.299 1005.48 124.321 1007.87 124.83C1007.87 124.83 1008 123.542 1008.2 122.532C1009.64 115.603 1015.51 110.165 1022.04 110.003C1022.17 110.001 1022.29 110 1022.42 110ZM1010.99 218.024L1010.99 218.037C1011.02 218.352 1010.96 219.503 1011.06 220.432C1011.72 226.232 1016.42 231.14 1021.66 231.475C1027.73 231.862 1033.57 226.094 1033.67 218.981C1033.94 188.022 1033.76 157.061 1033.67 126.101C1033.62 119.564 1028.61 113.57 1022.4 113.504C1022.35 113.504 1022.3 113.504 1022.25 113.504C1016.31 113.567 1010.92 119.35 1010.97 126.353C1011.05 127.068 1011.1 127.849 1011.27 128.547C1011.8 130.824 1013.15 132.791 1014.82 134.259C1014.82 134.259 1016.02 136.199 1014.67 137.127C1014.13 137.499 1013.4 137.45 1012.88 137.012C1012.78 136.926 1012.78 136.926 1012.68 136.839C1010.35 134.725 1008.69 131.796 1008.09 128.527C1007.62 128.388 1007.1 128.225 1006.6 128.141C999.856 127.012 992.672 131.037 989.447 137.761C987.728 141.345 987.13 145.564 987.714 149.573C987.896 150.824 988.464 152.31 989.147 153.705C990.628 156.73 993.095 159.247 996.287 159.887C996.287 159.887 996.773 160.02 997.062 160.311C998.073 161.332 997.31 163.68 995.467 163.28C990.939 162.26 987.351 158.27 985.498 153.288C981.942 156.415 979.251 160.775 977.975 165.629C975.538 174.901 978.567 185.562 985.489 191.699C987.298 186.856 990.766 182.728 995.618 181.715C995.618 181.715 995.679 181.651 996.099 181.675C997.629 181.849 998.176 184.711 995.979 185.206C991.84 186.172 988.859 190.609 987.754 195.083C987.681 195.803 987.56 196.588 987.519 197.32C987.017 206.359 993.131 215.285 1001.38 216.814C1002.88 217.091 1004.41 217.139 1005.92 216.958C1006.61 216.875 1007.29 216.742 1007.97 216.562C1008.46 213.014 1010.2 209.751 1012.78 207.467C1013.1 207.181 1013.48 207.003 1013.9 207.009C1015.26 207.1 1015.91 209.138 1014.57 210.357C1012.51 212.256 1011.14 214.964 1010.99 218.024ZM1079.4 219.433C1077.81 219.466 1076.57 221.773 1077.57 223.394C1078.67 225.166 1082.11 224.3 1081.66 221.51C1081.47 220.352 1080.49 219.424 1079.4 219.433ZM1054.06 204.926V198.855C1054.07 198.392 1054.23 197.957 1054.52 197.617L1061.11 190.257C1061.45 189.904 1061.88 189.719 1062.36 189.75C1063.09 189.845 1063.19 190.072 1063.39 190.331C1063.93 191.001 1063.96 191.986 1063.33 192.734L1057.2 199.581V204.963C1060.01 206.075 1061.93 209.98 1060.5 213.298C1059.04 216.682 1054.43 217.735 1051.91 215.047C1049.26 212.231 1050.32 206.27 1054.06 204.926ZM1092.08 179.152C1091.29 178.922 1090.54 178.488 1089.92 177.829C1086.95 174.667 1088.65 167.54 1093.58 167.435C1093.65 167.435 1093.65 167.435 1093.72 167.435C1097.28 167.511 1100.19 172.198 1098.51 176.079C1097.87 177.564 1096.63 178.6 1095.22 179.068V198.276C1095.19 198.983 1095.17 199.017 1094.76 199.515L1082.92 212.74C1082.45 213.217 1082.41 213.223 1081.81 213.253H1067.95C1067.01 213.207 1066.79 212.756 1066.6 212.377C1066.05 211.325 1066.59 209.815 1067.95 209.749H1081.16L1092.08 197.55V179.152ZM1055.6 208.157C1053.67 208.199 1052.39 211.894 1054.75 213.011C1056.37 213.778 1058.62 211.651 1057.65 209.535C1057.26 208.703 1056.46 208.151 1055.6 208.157ZM1013.9 186.472C1014.14 186.5 1014.18 186.521 1014.29 186.561C1014.85 186.778 1015.23 187.378 1015.35 188.069C1015.36 188.145 1015.36 188.145 1015.38 188.22C1015.7 189.95 1016.42 191.57 1017.46 192.912C1019.23 195.18 1021.7 196.657 1024.3 197.433C1024.3 197.433 1025.42 197.945 1025.51 198.971C1025.61 200.121 1024.53 201.13 1023.44 200.801C1018.35 199.266 1013.58 195.208 1012.36 189.222C1012.11 188.004 1012.5 186.571 1013.66 186.472C1013.81 186.459 1013.85 186.469 1013.9 186.472ZM1067.92 173.997C1067.84 174.287 1067.74 174.576 1067.62 174.86C1066.16 178.244 1061.56 179.296 1059.03 176.609C1056.06 173.447 1057.76 166.321 1062.69 166.216C1062.76 166.215 1062.76 166.215 1062.83 166.216C1065.07 166.263 1067.05 168.14 1067.8 170.493H1070.76C1070.79 170.494 1070.82 170.496 1070.86 170.497C1071.42 170.559 1071.56 170.684 1071.86 171.006L1076.94 176.672C1077.22 177.008 1077.38 177.445 1077.4 177.91V193.985C1077.36 195.008 1077.1 195.095 1076.79 195.365C1075.87 196.168 1074.31 195.514 1074.26 193.985V178.636L1070.11 173.997H1067.92ZM1042.29 146.13C1043.07 146.26 1043.67 146.98 1043.71 147.874V191.125C1043.64 192.513 1041.96 193.404 1041.03 192.364C1040.75 192.053 1040.6 191.831 1040.57 191.125V147.874C1040.61 146.88 1041.34 146.079 1042.29 146.13ZM1093.62 170.939C1091.69 170.98 1090.41 174.676 1092.77 175.793C1094.39 176.559 1096.64 174.438 1095.66 172.316C1095.28 171.485 1094.48 170.933 1093.62 170.939ZM1062.73 169.719C1060.79 169.76 1059.54 173.466 1061.88 174.573C1063.53 175.353 1065.8 173.137 1064.73 171.016C1064.33 170.218 1063.6 169.713 1062.73 169.719ZM1011.16 168.96C1013.16 168.975 1015.18 169.683 1016.65 171.237C1017.59 172.22 1017.07 174.365 1015.62 174.336C1014.78 174.318 1014.22 173.393 1013.45 172.986C1011.53 171.979 1009.27 172.481 1007.4 173.296C1007.4 173.296 1006.56 173.548 1005.98 173.143C1005.01 172.455 1005.1 170.529 1006.33 170.001C1006.38 169.977 1006.44 169.953 1006.5 169.93C1007.99 169.315 1009.56 168.956 1011.16 168.96ZM1084.52 129.108C1085.11 129.195 1085.13 129.243 1085.49 129.615L1093.72 138.8C1094.14 139.321 1094.15 139.364 1094.18 140.038V156.335C1094.15 157.042 1094.12 157.076 1093.72 157.574L1083.55 168.933C1081.89 170.706 1079.58 168.447 1081.33 166.456L1091.04 155.61V140.764L1083.73 132.605H1081.25C1081.25 132.605 1079.85 132.325 1079.7 131.089C1079.58 130.107 1080.33 129.148 1081.25 129.102H1084.38C1084.43 129.104 1084.47 129.106 1084.52 129.108ZM1051.72 143.765C1050.92 143.535 1050.18 143.101 1049.56 142.441C1046.59 139.279 1048.28 132.153 1053.22 132.048C1053.28 132.048 1053.28 132.048 1053.35 132.048C1056.91 132.124 1059.83 136.81 1058.15 140.692C1057.51 142.177 1056.26 143.213 1054.85 143.681V149.124L1060.98 155.97C1060.98 155.97 1061.36 156.462 1061.43 156.955C1061.61 158.362 1059.94 159.69 1058.77 158.448L1052.18 151.088C1051.89 150.751 1051.73 150.311 1051.72 149.849V143.765ZM1013.86 144.538C1014.24 144.572 1014.6 144.72 1014.97 144.849C1018.85 146.218 1022.46 148.912 1024.35 153.048C1024.92 154.313 1025.42 155.683 1025.51 157.076C1025.6 158.329 1024.17 159.473 1023.09 158.672C1022.43 158.19 1022.38 157.157 1022.14 156.264C1021.19 152.772 1018.35 150.14 1015.41 148.758C1014.78 148.463 1014.13 148.209 1013.47 148.009C1013.47 148.009 1012.36 147.544 1012.23 146.546C1012.09 145.553 1012.84 144.558 1013.78 144.535C1013.81 144.536 1013.84 144.537 1013.86 144.538ZM1055.72 113.504L1043.23 127.035C1041.39 128.731 1039.3 126.482 1041.05 124.52L1053.99 110.494C1054.46 110.033 1054.49 110.028 1055.09 110H1062.69C1062.74 110.002 1062.78 110.004 1062.83 110.006C1063.4 110.089 1063.42 110.137 1063.78 110.488L1073.65 121.079C1073.94 121.414 1074.11 121.658 1074.14 122.342V130.014C1076.94 131.127 1078.86 135.032 1077.43 138.35C1075.97 141.734 1071.37 142.786 1068.84 140.099C1066.2 137.287 1067.25 131.322 1071 129.977V123.088L1062.06 113.504H1055.72ZM1053.26 135.552C1051.32 135.593 1050.06 139.298 1052.41 140.406C1054.06 141.186 1056.32 138.97 1055.26 136.849C1054.86 136.051 1054.12 135.545 1053.26 135.552ZM1072.61 133.21C1072.57 133.212 1072.53 133.212 1072.49 133.211C1070.58 133.308 1069.36 136.964 1071.69 138.063C1073.34 138.843 1075.61 136.627 1074.54 134.506C1074.15 133.731 1073.45 133.233 1072.61 133.21Z" fill="white"/>
<path fill-rule="evenodd" clip-rule="evenodd" d="M643.7 226.469C643.652 226.439 643.605 226.407 643.559 226.37C643.475 226.304 643.458 226.283 643.381 226.207L636.715 219.125C636.284 218.634 636.261 218.419 636.244 217.918V201.254C636.273 200.408 636.882 199.65 637.676 199.557C637.901 199.53 637.955 199.551 638.028 199.557C638.737 199.668 639.339 200.258 639.443 201.006C639.458 201.116 639.456 201.144 639.46 201.254V217.21L645.655 223.792C645.655 223.792 645.764 223.937 645.876 224.168C646.57 223.76 647.358 223.513 648.209 223.487C648.267 223.486 648.325 223.485 648.383 223.485C650.854 223.51 653.173 225.493 653.676 228.1C654.179 230.712 652.734 233.599 650.404 234.612C647.636 235.814 644.037 234.127 643.136 230.911C642.719 229.423 642.975 227.81 643.7 226.469ZM595.057 224.143C595.126 224.017 595.208 223.899 595.302 223.792L601.497 217.21V201.254C601.497 201.254 601.568 200.456 601.989 200.025C602.243 199.765 602.579 199.598 602.929 199.557C603.154 199.53 603.208 199.551 603.281 199.557C603.638 199.613 603.693 199.655 603.84 199.736C604.362 200.021 604.691 200.625 604.713 201.254V217.918C604.69 218.589 604.564 218.758 604.242 219.125L597.576 226.207C597.475 226.306 597.397 226.376 597.329 226.428C597.602 226.922 597.805 227.461 597.922 228.03C598.462 230.664 597.013 233.591 594.665 234.611C591.893 235.815 588.291 234.105 587.396 230.911C586.459 227.568 588.92 223.594 592.469 223.487C592.527 223.486 592.585 223.485 592.644 223.485C593.488 223.494 594.315 223.731 595.057 224.143ZM592.594 226.901C591.756 226.91 590.948 227.461 590.593 228.267C589.973 229.674 591.045 231.613 592.594 231.623C594.256 231.634 595.543 229.219 594.272 227.697C593.863 227.207 593.259 226.912 592.638 226.902C592.623 226.901 592.609 226.901 592.594 226.901ZM648.334 226.901C646.812 226.916 645.601 228.925 646.419 230.435C647.261 231.989 649.978 231.908 650.494 229.881C650.845 228.501 649.801 226.896 648.334 226.901ZM618.871 219.694V208.753C618.878 208.462 618.902 208.381 618.949 208.225C619.14 207.603 619.693 207.123 620.31 207.054C620.473 207.036 620.511 207.046 620.563 207.047C620.872 207.073 620.963 207.113 621.132 207.193C621.645 207.435 622.018 207.979 622.077 208.574C622.085 208.654 622.084 208.673 622.086 208.753V219.695C623.866 220.315 625.346 221.909 625.777 223.89C626.352 226.535 624.912 229.509 622.534 230.542C619.763 231.747 616.161 230.036 615.266 226.842C614.464 223.98 616.148 220.663 618.871 219.694ZM620.464 222.832C619.625 222.841 618.817 223.393 618.463 224.198C617.846 225.599 618.909 227.523 620.435 227.554C621.406 227.573 622.347 226.845 622.617 225.839C622.981 224.481 621.975 222.896 620.565 222.834C620.531 222.833 620.498 222.832 620.464 222.832ZM665.838 220.994H660.707C660.074 220.97 659.915 220.835 659.57 220.493L649.263 209.544C648.832 209.052 648.809 208.838 648.792 208.336V193.339C648.823 192.495 649.431 191.739 650.216 191.643C650.451 191.614 650.508 191.637 650.584 191.643C651.368 191.771 651.977 192.485 652.008 193.339V207.629L661.372 217.578H665.905C666.59 215.393 668.449 213.585 670.894 213.51C670.952 213.509 671.011 213.509 671.069 213.509C673.518 213.534 675.82 215.483 676.347 218.053C676.887 220.686 675.438 223.614 673.089 224.635C670.34 225.829 666.772 224.18 665.841 221.003L665.838 220.994ZM575.118 217.578H579.585L588.949 207.629V193.339C588.964 192.938 589.001 192.872 589.066 192.701C589.325 192.017 590.01 191.583 590.741 191.643C591.525 191.771 592.134 192.485 592.165 193.339V208.336C592.142 209.008 592.016 209.177 591.694 209.544L581.387 220.493C581.132 220.746 580.819 220.924 580.479 220.976C580.378 220.992 580.352 220.99 580.25 220.994H575.07C574.577 222.595 573.46 223.992 571.979 224.635C569.23 225.828 565.661 224.179 564.73 221.003C563.748 217.653 566.151 213.621 569.783 213.51C569.842 213.509 569.9 213.509 569.958 213.509C572.254 213.532 574.422 215.239 575.118 217.578ZM671.019 216.925C670.179 216.933 669.372 217.487 669.018 218.29C668.395 219.706 669.486 221.657 671.048 221.647C672.715 221.636 673.963 219.165 672.66 217.678C672.244 217.202 671.638 216.922 671.019 216.925ZM569.909 216.925C568.381 216.94 567.176 218.948 567.994 220.459C568.836 222.013 571.553 221.931 572.069 219.905C572.42 218.524 571.375 216.919 569.909 216.925ZM642.069 148.482C642.935 149.269 643.62 150.311 644.301 151.334C645.881 153.708 647.139 156.319 648.037 159.062L648.094 159.239L648.179 159.726C648.163 159.89 648.168 160.058 648.129 160.218C648.024 160.652 647.912 160.722 647.652 161.056L643.142 165.399C643.499 167.828 643.509 170.351 643.163 172.809L643.142 172.948L647.652 177.29C647.912 177.625 648.024 177.695 648.129 178.128C648.229 178.54 648.135 178.988 648.008 179.374C646.8 183.04 644.925 186.466 642.539 189.402L642.423 189.543L642.069 189.864C641.695 190.04 641.602 190.135 641.18 190.126C641.025 190.123 640.874 190.072 640.721 190.045L634.926 188.067C633.107 189.623 631.057 190.886 628.895 191.79L628.772 191.841L627.487 198.162C627.344 198.568 627.343 198.706 627.042 199.02C626.756 199.318 626.339 199.455 625.966 199.531C622.318 200.264 618.532 200.242 614.884 199.477L614.445 199.312C614.115 199.056 613.991 199.017 613.787 198.625C613.712 198.481 613.678 198.316 613.624 198.162L612.339 191.841C610.164 190.948 608.118 189.702 606.288 188.155L606.185 188.067L600.39 190.045C599.988 190.116 599.875 190.184 599.468 190.064C599.082 189.95 598.761 189.635 598.514 189.329C596.095 186.345 594.218 182.845 593.017 179.107L592.932 178.621C592.976 178.19 592.944 178.055 593.163 177.672C593.243 177.531 593.36 177.417 593.459 177.29L597.969 172.948C597.609 170.497 597.6 167.995 597.949 165.537L597.969 165.399L593.459 161.056C593.199 160.722 593.087 160.652 592.982 160.218C592.882 159.806 592.977 159.358 593.104 158.972C594.313 155.301 596.164 151.908 598.572 148.945L598.688 148.804L599.042 148.482C599.416 148.307 599.509 148.211 599.931 148.22C600.086 148.223 600.237 148.274 600.39 148.301L606.185 150.28C608.009 148.717 610.039 147.466 612.216 146.556L612.339 146.505L613.624 140.185C613.767 139.778 613.768 139.641 614.069 139.327C614.355 139.028 614.774 138.89 615.145 138.816C618.791 138.083 622.579 138.105 626.227 138.87L626.666 139.035C626.792 139.132 626.931 139.211 627.042 139.327C627.343 139.641 627.344 139.779 627.487 140.185L628.772 146.505C630.933 147.392 632.992 148.644 634.823 150.191L634.926 150.28L640.721 148.301C641.179 148.22 641.182 148.22 641.643 148.282C641.785 148.349 641.927 148.415 642.069 148.482ZM620.476 141.692C619.18 141.699 617.885 141.807 616.606 142.015L616.539 142.026L615.294 148.149L615.088 148.69C614.967 148.835 614.867 149.005 614.723 149.126C614.447 149.359 614.098 149.455 613.784 149.577C611.519 150.465 609.409 151.799 607.598 153.481L607.129 153.784C606.594 153.901 606.589 153.901 606.048 153.821L600.433 151.904C598.76 154.111 597.408 156.594 596.442 159.228L596.417 159.295L600.787 163.502L601.125 163.962C601.182 164.146 601.27 164.323 601.297 164.516C601.392 165.196 601.144 165.857 601.061 166.556C600.797 168.782 600.875 171.049 601.284 173.247L601.297 173.83C601.126 174.382 601.123 174.387 600.787 174.844L596.417 179.052C597.378 181.694 598.724 184.177 600.391 186.387L600.433 186.442L606.048 184.526L606.591 184.445C606.771 184.484 606.959 184.491 607.129 184.563C607.458 184.7 607.711 184.974 607.967 185.202C609.821 186.839 611.96 188.114 614.242 188.941L614.723 189.221C615.087 189.654 615.089 189.659 615.294 190.197L616.539 196.321C619.176 196.758 621.872 196.759 624.506 196.332L624.572 196.321L625.817 190.197L626.023 189.656C626.144 189.511 626.244 189.342 626.388 189.221C626.664 188.987 627.013 188.891 627.328 188.769C629.594 187.882 631.703 186.547 633.513 184.866L633.982 184.563C634.517 184.445 634.522 184.445 635.063 184.526L640.678 186.442C642.364 184.22 643.723 181.718 644.694 179.052L640.325 174.844C640.097 174.536 639.868 174.213 639.814 173.831C639.762 173.459 639.858 173.09 639.916 172.741C640.324 170.211 640.294 167.616 639.827 165.098L639.814 164.515C639.986 163.964 639.988 163.959 640.325 163.502L644.694 159.295C643.73 156.65 642.384 154.168 640.72 151.96L640.678 151.904L635.063 153.821L634.519 153.902C634.34 153.862 634.152 153.855 633.982 153.784C633.653 153.646 633.4 153.373 633.144 153.145C631.287 151.504 629.156 150.234 626.869 149.405L626.388 149.126C626.025 148.692 626.021 148.687 625.817 148.149L624.572 142.026C623.217 141.801 621.842 141.69 620.476 141.692ZM620.478 184.244C621.452 184.244 622.243 185.084 622.243 186.118C622.243 187.153 621.452 187.993 620.478 187.993C619.505 187.993 618.714 187.153 618.714 186.118C618.714 185.084 619.505 184.244 620.478 184.244ZM574.819 153.697C574.807 153.699 574.794 153.701 574.781 153.702C574.279 153.76 573.349 153.664 572.505 153.766C566.577 154.487 561.52 160.101 561.103 166.43C560.618 173.812 566.442 181.046 573.905 181.122C577.406 181.133 580.906 181.144 584.407 181.153C585.272 181.155 585.971 181.901 585.971 182.819C585.971 183.262 585.806 183.686 585.511 183.999C585.216 184.312 584.816 184.487 584.399 184.486C580.895 184.476 577.39 184.466 573.885 184.454C567.545 184.39 561.448 179.996 559.086 173.748C556.549 167.041 558.576 158.691 563.928 154.112C566.457 151.947 569.6 150.639 572.858 150.386C572.858 150.386 572.562 148.705 572.474 147.369C571.921 138.974 576.005 130.399 582.776 125.907C587.164 122.996 592.532 121.836 597.664 122.634C597.664 122.634 598.572 121.309 599.395 120.292C604.508 113.975 612.229 110.121 620.134 110.002C620.287 110 620.44 110 620.593 110C629.464 110.057 638.087 114.797 643.264 122.619C643.264 122.619 644.738 122.409 646.147 122.381C654.55 122.215 662.803 127.624 666.425 135.73C668.442 140.244 669.025 145.452 668.101 150.363C668.101 150.363 669.386 150.501 670.396 150.735C676.131 152.062 680.988 156.993 682.492 163.038C683.894 168.678 682.339 175.034 678.521 179.238C675.56 182.498 671.366 184.411 667.072 184.454C663.567 184.466 660.062 184.476 656.558 184.486C656.141 184.487 655.741 184.312 655.446 183.999C655.151 183.686 654.986 183.262 654.986 182.819C654.986 181.901 655.685 181.155 656.55 181.153C660.051 181.144 663.551 181.133 667.052 181.122C672.725 181.064 678.104 176.646 679.498 170.746C680.61 166.041 679.154 160.747 675.822 157.411C673.314 154.901 669.848 153.541 666.376 153.692C666.269 153.741 666.157 153.781 666.042 153.812C665.996 153.824 665.996 153.824 665.95 153.837C662.965 154.717 660.282 156.952 658.668 159.791C658.668 159.791 658.153 160.52 657.479 160.604C656.292 160.753 655.237 159.202 655.969 157.931C657.938 154.514 661.207 151.782 664.744 150.651C664.941 149.715 665.234 148.606 665.326 147.51C665.968 139.796 661.985 131.849 655.537 128.125C651.77 125.95 647.298 125.225 643.076 126.052L642.94 126.059C642.898 126.072 642.897 126.072 642.853 126.086C639.918 127.024 637.312 129.276 635.737 132.13C635.737 132.13 635.299 132.886 634.617 133.031C633.41 133.288 632.213 131.77 632.959 130.41C634.575 127.465 637.153 124.989 640.025 123.577C635.515 117.42 628.389 113.481 620.886 113.336C620.716 113.333 620.546 113.332 620.376 113.333C612.852 113.381 605.491 117.305 600.871 123.661C601.292 123.908 601.71 124.179 602.123 124.449C604.413 125.948 606.427 127.943 607.78 130.41C608.436 131.605 607.363 133.428 605.983 132.995C605.339 132.793 605.017 132.094 604.564 131.402C602.908 128.873 600.383 126.788 597.701 126.031C597.701 126.031 597.681 126.023 597.646 126.009C591.529 124.908 584.877 127.219 580.606 132.093C576.362 136.935 574.633 144.051 576.109 150.529C577.049 150.753 577.883 151.249 578.727 151.726C581.325 153.193 583.632 155.298 585.169 157.979C585.169 157.979 585.643 159.015 585.19 159.8C584.618 160.792 583.051 160.855 582.42 159.751C582.399 159.714 582.378 159.678 582.357 159.641C580.961 157.277 578.779 155.423 576.347 154.293C575.903 154.087 575.446 153.908 574.975 153.787C574.975 153.787 574.914 153.757 574.819 153.697ZM620.63 156.973C624.854 157.016 628.96 159.726 630.844 163.751C632.392 167.057 632.431 171.099 630.906 174.462C628.424 179.934 621.772 182.926 616.151 180.442C612.485 178.823 609.735 175.059 609.183 170.877C608.671 167.007 610.039 162.908 612.733 160.243C614.816 158.183 617.616 157.002 620.482 156.973C620.531 156.973 620.58 156.973 620.63 156.973ZM634.999 176.329C635.973 176.329 636.764 177.169 636.764 178.203C636.764 179.238 635.973 180.078 634.999 180.078C634.025 180.078 633.235 179.238 633.235 178.203C633.235 177.169 634.025 176.329 634.999 176.329ZM606.742 176.329C607.716 176.329 608.506 177.169 608.506 178.203C608.506 179.238 607.716 180.078 606.742 180.078C605.768 180.078 604.977 179.238 604.977 178.203C604.977 177.169 605.768 176.329 606.742 176.329ZM620.502 160.389C616.726 160.427 613.157 163.51 612.435 167.51C611.922 170.352 612.832 173.436 614.781 175.458C617.062 177.825 620.679 178.612 623.679 177.309C626.324 176.16 628.321 173.468 628.737 170.457C629.39 165.724 625.848 160.76 621.14 160.41C620.928 160.394 620.715 160.388 620.502 160.389ZM634.999 159.249C635.973 159.249 636.764 160.089 636.764 161.124C636.764 162.158 635.973 162.998 634.999 162.998C634.025 162.998 633.235 162.158 633.235 161.124C633.235 160.089 634.025 159.249 634.999 159.249ZM606.742 159.249C607.716 159.249 608.506 160.089 608.506 161.124C608.506 162.158 607.716 162.998 606.742 162.998C605.768 162.998 604.977 162.158 604.977 161.124C604.977 160.089 605.768 159.249 606.742 159.249ZM620.478 151.265C621.452 151.265 622.243 152.105 622.243 153.139C622.243 154.174 621.452 155.014 620.478 155.014C619.505 155.014 618.714 154.174 618.714 153.139C618.714 152.105 619.505 151.265 620.478 151.265Z" fill="white"/>
<path fill-rule="evenodd" clip-rule="evenodd" d="M217.892 224.4V219.212C217.898 218.946 217.923 218.859 217.975 218.702C218.193 218.047 218.869 217.588 219.565 217.602C219.829 217.618 219.915 217.647 220.07 217.706C220.674 217.935 221.094 218.557 221.108 219.212V224.402C222.863 224.979 224.334 226.45 224.783 228.293C225.395 230.806 223.953 233.65 221.556 234.633C218.807 235.759 215.237 234.204 214.307 231.207C213.466 228.498 215.138 225.32 217.892 224.4ZM232.286 224.4V219.212C232.302 218.401 232.957 217.672 233.764 217.606C233.89 217.596 233.919 217.601 233.958 217.602C234.223 217.618 234.309 217.647 234.464 217.706C235.068 217.935 235.488 218.557 235.501 219.212V224.403C237.302 224.997 238.795 226.533 239.207 228.424C239.746 230.902 238.308 233.667 235.949 234.633C233.2 235.759 229.632 234.203 228.701 231.207C227.858 228.498 229.532 225.32 232.286 224.4ZM203.499 224.4V219.212C203.504 218.946 203.529 218.859 203.581 218.702C203.8 218.047 204.475 217.588 205.171 217.602C206.007 217.653 206.696 218.282 206.714 219.212V224.404C208.508 224.996 210.006 226.526 210.42 228.424C210.959 230.902 209.521 233.666 207.162 234.633C204.148 235.868 200.167 233.846 199.712 230.281C199.393 227.779 201.057 225.211 203.499 224.4ZM205.092 227.361C204.103 227.37 203.167 228.103 202.941 229.084C202.646 230.365 203.728 231.797 205.078 231.814C206.73 231.836 208.019 229.591 206.805 228.152C206.386 227.656 205.743 227.359 205.092 227.361ZM233.879 227.361C232.366 227.375 231.154 229.241 231.952 230.67C232.774 232.143 235.465 232.107 236.024 230.224C236.41 228.926 235.39 227.384 233.923 227.361C233.908 227.361 233.893 227.361 233.879 227.361ZM219.485 227.361C217.983 227.375 216.768 229.214 217.545 230.647C218.359 232.148 221.143 232.126 221.653 230.144C221.979 228.878 221.002 227.421 219.587 227.363C219.553 227.361 219.519 227.361 219.485 227.361ZM233.1 157.337C239.214 157.395 245.172 161.518 247.257 167.448C247.812 169.027 248.096 170.691 248.112 172.379C248.143 181.432 248.112 190.485 248.112 199.538C248.092 205.717 243.975 211.715 238.022 213.818C236.443 214.375 234.773 214.659 233.1 214.675C224.065 214.704 215.03 214.675 205.995 214.675C199.805 214.655 193.825 210.484 191.743 204.564C191.188 202.985 190.904 201.321 190.888 199.633C190.857 190.58 190.888 181.527 190.888 172.474C190.908 166.299 195.017 160.299 200.978 158.194C202.557 157.636 204.227 157.353 205.9 157.337C214.967 157.308 224.033 157.308 233.1 157.337ZM181.151 207.677C180.658 209.187 179.541 210.505 178.06 211.111C175.292 212.245 171.693 210.653 170.792 207.621C169.857 204.475 172.231 200.724 175.865 200.619C175.923 200.618 175.981 200.617 176.039 200.618C178.328 200.64 180.503 202.249 181.199 204.455H186.36C186.381 204.456 186.403 204.456 186.424 204.457C187.62 204.529 188.44 206.143 187.563 207.134C187.262 207.474 186.809 207.668 186.36 207.677H181.151ZM257.877 204.455C258.576 202.392 260.455 200.688 262.856 200.619C262.914 200.618 262.972 200.617 263.031 200.618C265.47 200.641 267.779 202.465 268.309 204.904C268.849 207.388 267.4 210.149 265.051 211.111C262.297 212.239 258.722 210.652 257.8 207.677H252.64C251.405 207.652 250.566 205.983 251.437 204.998C251.738 204.658 252.191 204.464 252.64 204.455H257.877ZM206 160.559C201.113 160.575 196.421 163.839 194.776 168.518C194.338 169.763 194.116 171.078 194.103 172.4C194.073 181.444 194.103 190.488 194.103 199.532C194.119 204.382 197.337 209.116 202.047 210.779C203.288 211.218 204.599 211.44 205.921 211.453C214.973 211.482 224.027 211.482 233.079 211.453C239.09 211.396 244.649 206.312 244.888 199.997C244.893 199.868 244.895 199.74 244.897 199.612C244.927 190.568 244.897 181.524 244.897 172.48C244.881 167.629 241.641 162.888 236.953 161.233C235.712 160.794 234.401 160.572 233.079 160.559C224.053 160.53 215.027 160.559 206 160.559ZM175.99 203.839C175.152 203.847 174.344 204.367 173.989 205.127C173.365 206.463 174.456 208.303 176.019 208.293C177.686 208.282 178.944 205.962 177.631 204.55C177.214 204.101 176.61 203.838 175.99 203.839ZM262.981 203.839C261.285 203.856 260.062 206.243 261.406 207.621C262.461 208.703 264.652 208.298 265.126 206.702C265.506 205.422 264.522 203.9 263.083 203.841C263.049 203.84 263.015 203.839 262.981 203.839ZM232.596 163.982C237.059 164.025 241.229 167.758 241.469 172.482C241.476 172.615 241.479 172.749 241.48 172.883C241.515 181.632 241.515 190.38 241.48 199.129C241.437 203.754 237.492 207.982 232.596 208.03C223.866 208.056 215.134 208.056 206.404 208.03C201.781 207.985 197.565 203.972 197.52 199.128C197.496 190.38 197.496 181.632 197.52 172.884C197.563 168.252 201.581 164.029 206.404 163.982C215.134 163.954 223.866 163.954 232.596 163.982ZM206.464 167.204C203.492 167.213 200.764 169.764 200.735 172.904C200.712 181.639 200.712 190.373 200.735 199.108C200.763 202.063 203.291 204.759 206.387 204.808C215.116 204.893 223.846 204.835 232.576 204.808C235.54 204.779 238.236 202.244 238.265 199.107C238.3 190.373 238.3 181.639 238.265 172.905C238.237 169.95 235.716 167.234 232.576 167.204C223.872 167.176 215.168 167.204 206.464 167.204ZM257.883 190.033C258.59 187.968 260.479 186.265 262.856 186.197C262.914 186.196 262.972 186.195 263.031 186.196C265.47 186.218 267.779 188.043 268.309 190.482C268.849 192.966 267.4 195.727 265.051 196.689C262.297 197.818 258.722 196.23 257.8 193.255H252.64C251.248 193.227 250.394 191.006 251.893 190.218C252.065 190.127 252.254 190.068 252.447 190.045C252.511 190.037 252.576 190.034 252.64 190.033H257.883ZM181.151 193.255C180.658 194.765 179.541 196.083 178.06 196.689C175.289 197.824 171.686 196.21 170.792 193.199C169.854 190.042 172.316 186.298 175.865 186.197C175.923 186.196 175.981 186.195 176.039 186.196C178.337 186.217 180.503 187.827 181.199 190.033H186.36C186.381 190.034 186.403 190.034 186.424 190.034C187.629 190.108 188.434 191.727 187.563 192.712C187.262 193.052 186.809 193.246 186.36 193.255H181.151ZM213.433 187.926V193.553C213.433 193.553 213.358 194.45 212.739 194.879C211.786 195.537 210.26 194.947 210.218 193.553V182.998C210.23 182.573 210.397 182.17 210.689 181.859L215.203 177.336C215.512 177.044 215.914 176.877 216.34 176.864H221.757C221.79 176.865 221.822 176.866 221.854 176.867C222.17 176.896 222.255 176.933 222.417 177.006C222.982 177.26 223.342 177.703 223.365 178.475V193.553C223.324 194.927 221.162 195.884 220.334 194.302C220.218 194.081 220.162 193.951 220.15 193.553V187.926H213.433ZM227.272 176.867C227.569 176.894 227.617 176.92 227.745 176.969C228.355 177.201 228.758 177.675 228.782 178.475V193.553C228.746 194.758 228.332 194.798 227.835 195.022C226.899 195.444 225.636 194.748 225.57 193.65C225.568 193.618 225.568 193.585 225.567 193.553V178.475C225.577 178.157 225.608 178.07 225.671 177.904C225.903 177.292 226.376 176.888 227.175 176.864C227.207 176.865 227.239 176.866 227.272 176.867ZM175.99 189.417C175.153 189.425 174.344 189.945 173.989 190.705C173.369 192.033 174.44 193.861 175.99 193.871C176.96 193.877 177.893 193.178 178.15 192.228C178.498 190.936 177.485 189.441 176.034 189.417C176.019 189.417 176.004 189.417 175.99 189.417ZM262.981 189.417C262.124 189.425 261.3 189.971 260.958 190.754C260.38 192.075 261.444 193.851 262.967 193.871C264.593 193.892 265.949 191.696 264.693 190.208C264.275 189.712 263.632 189.415 262.981 189.417ZM220.15 184.678V180.086H217.006L213.433 183.666V184.699C215.672 184.686 217.911 184.655 220.15 184.678ZM173.779 151.218C173.276 151.272 172.348 151.182 171.505 151.278C165.577 151.958 160.52 157.253 160.103 163.222C159.618 170.184 165.442 177.007 172.905 177.079C176.406 177.09 179.906 177.1 183.407 177.108C184.272 177.11 184.971 177.813 184.971 178.68C184.971 179.097 184.806 179.498 184.511 179.793C184.216 180.088 183.816 180.253 183.399 180.252C179.895 180.243 176.39 180.233 172.885 180.222C166.545 180.161 160.448 176.017 158.086 170.124C155.549 163.799 157.576 155.923 162.928 151.604C165.457 149.563 168.6 148.329 171.858 148.09C171.858 148.09 171.562 146.505 171.474 145.245C170.921 137.327 175.005 129.239 181.776 125.003C186.164 122.257 191.532 121.163 196.664 121.916C196.664 121.916 197.572 120.666 198.395 119.707C203.508 113.749 211.229 110.114 219.134 110.002C219.287 110 219.44 110 219.593 110C228.464 110.054 237.087 114.524 242.264 121.902C242.264 121.902 243.738 121.703 245.147 121.677C253.55 121.52 261.803 126.622 265.425 134.268C267.442 138.525 268.025 143.437 267.101 148.069C267.101 148.069 268.386 148.199 269.396 148.419C275.131 149.671 279.988 154.322 281.492 160.023C282.894 165.343 281.339 171.338 277.521 175.303C274.56 178.377 270.366 180.181 266.072 180.222C262.567 180.233 259.062 180.243 255.558 180.252C255.141 180.253 254.741 180.088 254.446 179.793C254.151 179.498 253.986 179.098 253.986 178.68C253.986 177.814 254.685 177.11 255.55 177.108C259.051 177.1 262.551 177.09 266.052 177.079C271.725 177.025 277.104 172.858 278.498 167.292C279.61 162.856 278.154 157.862 274.822 154.716C272.314 152.348 268.848 151.066 265.376 151.208C265.269 151.255 265.157 151.292 265.042 151.321C264.996 151.333 264.996 151.333 264.95 151.346C261.962 152.175 259.278 154.29 257.668 156.96C257.668 156.96 256.872 157.891 255.97 157.706C254.947 157.496 254.364 156.197 254.97 155.205C256.945 151.975 260.207 149.406 263.744 148.34C263.941 147.458 264.234 146.411 264.326 145.378C264.968 138.103 260.985 130.607 254.537 127.095C250.77 125.043 246.298 124.36 242.076 125.14L241.94 125.146C241.898 125.158 241.897 125.159 241.853 125.171C238.887 126.067 236.253 128.223 234.696 130.944C234.696 130.944 234.315 131.551 233.687 131.706C232.472 132.007 231.213 130.532 231.959 129.25C233.579 126.466 236.154 124.135 239.025 122.804C234.514 116.998 227.389 113.283 219.886 113.146C219.716 113.144 219.546 113.143 219.376 113.143C211.844 113.189 204.474 116.899 199.855 122.905C200.043 123.007 200.23 123.111 200.417 123.215C203.029 124.663 205.326 126.736 206.808 129.297C206.808 129.297 207.167 129.967 206.98 130.599C206.631 131.782 204.747 132.167 204.022 130.906C204.002 130.871 203.982 130.837 203.961 130.802C203.933 130.756 203.906 130.71 203.878 130.664C202.512 128.456 200.419 126.722 198.063 125.627C197.623 125.423 197.17 125.245 196.702 125.12C196.702 125.12 196.68 125.113 196.644 125.099C190.528 124.061 183.876 126.241 179.606 130.837C175.353 135.414 173.625 142.145 175.119 148.265C175.202 148.291 175.284 148.317 175.367 148.343C178.979 149.48 182.201 152.03 184.142 155.206C184.816 156.311 183.818 158.051 182.416 157.687C181.906 157.555 181.58 157.16 181.248 156.649C179.557 154.063 176.87 152.001 173.974 151.298C173.974 151.298 173.896 151.273 173.779 151.218ZM232.286 147.553C230.671 147.027 229.269 145.797 228.721 144.108C227.692 140.933 230.119 137.082 233.754 136.977C233.812 136.976 233.87 136.976 233.928 136.976C236.38 136.999 238.679 138.839 239.207 141.261C239.746 143.738 238.308 146.503 235.949 147.469C235.802 147.53 235.653 147.582 235.501 147.627V152.8C235.48 153.845 234.318 154.684 233.323 154.306C232.718 154.076 232.299 153.455 232.286 152.8V147.553ZM217.892 147.552C216.258 147.018 214.841 145.764 214.307 144.043C213.325 140.88 215.769 137.081 219.36 136.977C219.419 136.976 219.477 136.976 219.535 136.976C221.94 136.998 224.204 138.755 224.783 141.13C225.395 143.642 223.952 146.487 221.556 147.469C221.409 147.529 221.259 147.582 221.108 147.627V152.8C221.083 154.02 219.451 154.909 218.434 154.006C218.094 153.704 217.901 153.25 217.892 152.8V147.552ZM203.499 147.537C201.597 146.902 199.989 145.285 199.712 143.117C199.333 140.141 201.762 137.07 204.967 136.977C205.025 136.976 205.083 136.976 205.141 136.976C207.532 136.998 209.811 138.755 210.389 141.13C211.002 143.642 209.559 146.487 207.162 147.469C207.015 147.53 206.865 147.582 206.714 147.627V152.8C206.686 154.197 204.47 155.051 203.683 153.549C203.593 153.376 203.534 153.188 203.51 152.994C203.503 152.93 203.5 152.865 203.499 152.8V147.537ZM233.879 140.197C232.366 140.212 231.154 142.078 231.952 143.507C232.774 144.98 235.465 144.944 236.024 143.06C236.41 141.763 235.394 140.221 233.923 140.198C233.908 140.197 233.893 140.197 233.879 140.197ZM219.485 140.197C217.967 140.212 216.76 142.078 217.558 143.507C218.379 144.979 221.071 144.944 221.631 143.06C222.011 141.781 221.036 140.259 219.587 140.199C219.553 140.198 219.519 140.197 219.485 140.197ZM205.092 140.197C203.561 140.212 202.361 142.108 203.178 143.531C204.023 145.004 206.762 144.913 207.259 142.981C207.593 141.682 206.556 140.193 205.092 140.197Z" fill="white"/>
</svg>
