<svg width="343" height="117" viewBox="0 0 343 117" fill="none" xmlns="http://www.w3.org/2000/svg">
<path d="M0 75C0 33.5786 33.5786 0 75 0H343V117H0V75Z" fill="#FAC140"/>
<path d="M33.2427 90.824L32.9667 91.784H34.9707L34.6947 90.824C34.5667 90.408 34.4427 89.98 34.3227 89.54C34.2107 89.1 34.0987 88.664 33.9867 88.232H33.9387C33.8347 88.672 33.7227 89.112 33.6027 89.552C33.4907 89.984 33.3707 90.408 33.2427 90.824ZM30.6147 95L33.1707 87.152H34.8027L37.3587 95H35.8947L35.2827 92.876H32.6427L32.0307 95H30.6147ZM38.2061 95V89.108H39.3461L39.4421 90.152H39.4901C39.6981 89.768 39.9501 89.476 40.2461 89.276C40.5421 89.068 40.8461 88.964 41.1581 88.964C41.4381 88.964 41.6621 89.004 41.8301 89.084L41.5901 90.284C41.4861 90.252 41.3901 90.228 41.3021 90.212C41.2141 90.196 41.1061 90.188 40.9781 90.188C40.7461 90.188 40.5021 90.28 40.2461 90.464C39.9901 90.64 39.7701 90.952 39.5861 91.4V95H38.2061ZM44.7586 95.144C44.0786 95.144 43.5946 94.948 43.3066 94.556C43.0266 94.156 42.8866 93.64 42.8866 93.008V90.2H42.0466V89.168L42.9586 89.108L43.1266 87.5H44.2786V89.108H45.7786V90.2H44.2786V93.008C44.2786 93.696 44.5546 94.04 45.1066 94.04C45.2106 94.04 45.3186 94.028 45.4306 94.004C45.5426 93.972 45.6386 93.94 45.7186 93.908L45.9586 94.928C45.7986 94.984 45.6146 95.032 45.4066 95.072C45.2066 95.12 44.9906 95.144 44.7586 95.144ZM47.0186 95V89.108H48.3986V95H47.0186ZM47.7146 88.076C47.4666 88.076 47.2666 88.004 47.1146 87.86C46.9626 87.716 46.8866 87.524 46.8866 87.284C46.8866 87.052 46.9626 86.864 47.1146 86.72C47.2666 86.576 47.4666 86.504 47.7146 86.504C47.9626 86.504 48.1626 86.576 48.3146 86.72C48.4666 86.864 48.5426 87.052 48.5426 87.284C48.5426 87.524 48.4666 87.716 48.3146 87.86C48.1626 88.004 47.9626 88.076 47.7146 88.076ZM50.3992 95V90.2H49.6072V89.168L50.3992 89.108V88.496C50.3992 87.88 50.5512 87.376 50.8552 86.984C51.1592 86.584 51.6592 86.384 52.3552 86.384C52.5632 86.384 52.7632 86.404 52.9552 86.444C53.1472 86.484 53.3072 86.532 53.4352 86.588L53.1712 87.62C52.9552 87.524 52.7392 87.476 52.5232 87.476C52.0272 87.476 51.7792 87.808 51.7792 88.472V89.108H52.9312V90.2H51.7792V95H50.3992ZM53.9678 95V89.108H55.3478V95H53.9678ZM54.6638 88.076C54.4158 88.076 54.2158 88.004 54.0638 87.86C53.9118 87.716 53.8358 87.524 53.8358 87.284C53.8358 87.052 53.9118 86.864 54.0638 86.72C54.2158 86.576 54.4158 86.504 54.6638 86.504C54.9118 86.504 55.1118 86.576 55.2638 86.72C55.4158 86.864 55.4918 87.052 55.4918 87.284C55.4918 87.524 55.4158 87.716 55.2638 87.86C55.1118 88.004 54.9118 88.076 54.6638 88.076ZM59.5684 95.144C59.0324 95.144 58.5484 95.024 58.1164 94.784C57.6924 94.536 57.3524 94.184 57.0964 93.728C56.8484 93.264 56.7244 92.708 56.7244 92.06C56.7244 91.404 56.8604 90.848 57.1324 90.392C57.4044 89.928 57.7644 89.576 58.2124 89.336C58.6684 89.088 59.1564 88.964 59.6764 88.964C60.0524 88.964 60.3804 89.028 60.6604 89.156C60.9404 89.284 61.1884 89.44 61.4044 89.624L60.7324 90.524C60.5804 90.388 60.4244 90.284 60.2644 90.212C60.1044 90.132 59.9324 90.092 59.7484 90.092C59.2764 90.092 58.8884 90.272 58.5844 90.632C58.2884 90.992 58.1404 91.468 58.1404 92.06C58.1404 92.644 58.2844 93.116 58.5724 93.476C58.8684 93.836 59.2484 94.016 59.7124 94.016C59.9444 94.016 60.1604 93.968 60.3604 93.872C60.5684 93.768 60.7564 93.648 60.9244 93.512L61.4884 94.424C61.2164 94.664 60.9124 94.844 60.5764 94.964C60.2404 95.084 59.9044 95.144 59.5684 95.144ZM62.6514 95V89.108H64.0314V95H62.6514ZM63.3474 88.076C63.0994 88.076 62.8994 88.004 62.7474 87.86C62.5954 87.716 62.5194 87.524 62.5194 87.284C62.5194 87.052 62.5954 86.864 62.7474 86.72C62.8994 86.576 63.0994 86.504 63.3474 86.504C63.5954 86.504 63.7954 86.576 63.9474 86.72C64.0994 86.864 64.1754 87.052 64.1754 87.284C64.1754 87.524 64.0994 87.716 63.9474 87.86C63.7954 88.004 63.5954 88.076 63.3474 88.076ZM67.22 95.144C66.708 95.144 66.288 94.984 65.96 94.664C65.64 94.344 65.48 93.928 65.48 93.416C65.48 92.784 65.756 92.296 66.308 91.952C66.86 91.6 67.74 91.36 68.948 91.232C68.94 90.92 68.856 90.652 68.696 90.428C68.544 90.196 68.268 90.08 67.868 90.08C67.58 90.08 67.296 90.136 67.016 90.248C66.744 90.36 66.476 90.496 66.212 90.656L65.708 89.732C66.036 89.524 66.404 89.344 66.812 89.192C67.228 89.04 67.668 88.964 68.132 88.964C68.868 88.964 69.416 89.184 69.776 89.624C70.144 90.056 70.328 90.684 70.328 91.508V95H69.188L69.092 94.352H69.044C68.78 94.576 68.496 94.764 68.192 94.916C67.896 95.068 67.572 95.144 67.22 95.144ZM67.664 94.064C67.904 94.064 68.12 94.008 68.312 93.896C68.512 93.776 68.724 93.616 68.948 93.416V92.096C68.148 92.2 67.592 92.356 67.28 92.564C66.968 92.764 66.812 93.012 66.812 93.308C66.812 93.572 66.892 93.764 67.052 93.884C67.212 94.004 67.416 94.064 67.664 94.064ZM73.3235 95.144C72.8355 95.144 72.4875 94.996 72.2795 94.7C72.0795 94.404 71.9795 94 71.9795 93.488V86.528H73.3595V93.56C73.3595 93.728 73.3915 93.848 73.4555 93.92C73.5195 93.984 73.5875 94.016 73.6595 94.016C73.6915 94.016 73.7195 94.016 73.7435 94.016C73.7755 94.008 73.8195 94 73.8755 93.992L74.0555 95.024C73.9755 95.056 73.8715 95.084 73.7435 95.108C73.6235 95.132 73.4835 95.144 73.3235 95.144ZM23.414 107V99.152H24.806V107H23.414ZM26.6807 107V101.108H27.8207L27.9167 101.9H27.9647C28.2287 101.644 28.5167 101.424 28.8287 101.24C29.1407 101.056 29.4967 100.964 29.8967 100.964C30.5287 100.964 30.9887 101.168 31.2767 101.576C31.5647 101.984 31.7087 102.56 31.7087 103.304V107H30.3287V103.484C30.3287 102.996 30.2567 102.652 30.1127 102.452C29.9687 102.252 29.7327 102.152 29.4047 102.152C29.1487 102.152 28.9207 102.216 28.7207 102.344C28.5287 102.464 28.3087 102.644 28.0607 102.884V107H26.6807ZM35.4715 107.144C34.7915 107.144 34.3075 106.948 34.0195 106.556C33.7395 106.156 33.5995 105.64 33.5995 105.008V102.2H32.7595V101.168L33.6715 101.108L33.8395 99.5H34.9915V101.108H36.4915V102.2H34.9915V105.008C34.9915 105.696 35.2675 106.04 35.8195 106.04C35.9235 106.04 36.0315 106.028 36.1435 106.004C36.2555 105.972 36.3515 105.94 36.4315 105.908L36.6715 106.928C36.5115 106.984 36.3275 107.032 36.1195 107.072C35.9195 107.12 35.7035 107.144 35.4715 107.144ZM40.064 107.144C39.52 107.144 39.028 107.024 38.588 106.784C38.148 106.536 37.8 106.184 37.544 105.728C37.288 105.264 37.16 104.708 37.16 104.06C37.16 103.42 37.288 102.868 37.544 102.404C37.808 101.94 38.148 101.584 38.564 101.336C38.98 101.088 39.416 100.964 39.872 100.964C40.408 100.964 40.856 101.084 41.216 101.324C41.576 101.556 41.848 101.884 42.032 102.308C42.216 102.724 42.308 103.208 42.308 103.76C42.308 104.048 42.288 104.272 42.248 104.432H38.504C38.568 104.952 38.756 105.356 39.068 105.644C39.38 105.932 39.772 106.076 40.244 106.076C40.5 106.076 40.736 106.04 40.952 105.968C41.176 105.888 41.396 105.78 41.612 105.644L42.08 106.508C41.8 106.692 41.488 106.844 41.144 106.964C40.8 107.084 40.44 107.144 40.064 107.144ZM38.492 103.496H41.108C41.108 103.04 41.008 102.684 40.808 102.428C40.608 102.164 40.308 102.032 39.908 102.032C39.564 102.032 39.256 102.16 38.984 102.416C38.72 102.664 38.556 103.024 38.492 103.496ZM44.97 107.144C44.482 107.144 44.134 106.996 43.926 106.7C43.726 106.404 43.626 106 43.626 105.488V98.528H45.006V105.56C45.006 105.728 45.038 105.848 45.102 105.92C45.166 105.984 45.234 106.016 45.306 106.016C45.338 106.016 45.366 106.016 45.39 106.016C45.422 106.008 45.466 106 45.522 105.992L45.702 107.024C45.622 107.056 45.518 107.084 45.39 107.108C45.27 107.132 45.13 107.144 44.97 107.144ZM48.2278 107.144C47.7398 107.144 47.3918 106.996 47.1838 106.7C46.9838 106.404 46.8838 106 46.8838 105.488V98.528H48.2638V105.56C48.2638 105.728 48.2958 105.848 48.3598 105.92C48.4238 105.984 48.4918 106.016 48.5638 106.016C48.5958 106.016 48.6238 106.016 48.6478 106.016C48.6798 106.008 48.7238 106 48.7798 105.992L48.9598 107.024C48.8798 107.056 48.7758 107.084 48.6478 107.108C48.5278 107.132 48.3878 107.144 48.2278 107.144ZM50.1416 107V101.108H51.5216V107H50.1416ZM50.8376 100.076C50.5896 100.076 50.3896 100.004 50.2376 99.86C50.0856 99.716 50.0096 99.524 50.0096 99.284C50.0096 99.052 50.0856 98.864 50.2376 98.72C50.3896 98.576 50.5896 98.504 50.8376 98.504C51.0856 98.504 51.2856 98.576 51.4376 98.72C51.5896 98.864 51.6656 99.052 51.6656 99.284C51.6656 99.524 51.5896 99.716 51.4376 99.86C51.2856 100.004 51.0856 100.076 50.8376 100.076ZM55.3343 109.604C54.8703 109.604 54.4503 109.548 54.0743 109.436C53.7063 109.324 53.4143 109.152 53.1982 108.92C52.9903 108.696 52.8863 108.412 52.8863 108.068C52.8863 107.58 53.1663 107.16 53.7263 106.808V106.76C53.5743 106.664 53.4463 106.536 53.3423 106.376C53.2463 106.216 53.1982 106.016 53.1982 105.776C53.1982 105.544 53.2623 105.336 53.3903 105.152C53.5263 104.96 53.6783 104.804 53.8463 104.684V104.636C53.6463 104.484 53.4663 104.272 53.3063 104C53.1543 103.728 53.0783 103.42 53.0783 103.076C53.0783 102.62 53.1863 102.236 53.4023 101.924C53.6183 101.612 53.9023 101.376 54.2543 101.216C54.6143 101.048 54.9983 100.964 55.4062 100.964C55.5663 100.964 55.7183 100.98 55.8623 101.012C56.0143 101.036 56.1503 101.068 56.2703 101.108H58.3823V102.128H57.3023C57.3983 102.24 57.4783 102.384 57.5423 102.56C57.6063 102.728 57.6383 102.916 57.6383 103.124C57.6383 103.556 57.5383 103.924 57.3383 104.228C57.1383 104.524 56.8703 104.748 56.5343 104.9C56.1983 105.052 55.8223 105.128 55.4062 105.128C55.2783 105.128 55.1463 105.116 55.0103 105.092C54.8743 105.068 54.7383 105.028 54.6023 104.972C54.5143 105.052 54.4423 105.132 54.3863 105.212C54.3383 105.292 54.3143 105.4 54.3143 105.536C54.3143 105.704 54.3823 105.836 54.5183 105.932C54.6623 106.028 54.9143 106.076 55.2743 106.076H56.3183C57.0303 106.076 57.5663 106.192 57.9263 106.424C58.2943 106.648 58.4783 107.016 58.4783 107.528C58.4783 107.912 58.3503 108.26 58.0943 108.572C57.8383 108.892 57.4743 109.144 57.0023 109.328C56.5303 109.512 55.9743 109.604 55.3343 109.604ZM55.4062 104.264C55.6863 104.264 55.9263 104.16 56.1263 103.952C56.3263 103.744 56.4263 103.452 56.4263 103.076C56.4263 102.708 56.3263 102.424 56.1263 102.224C55.9343 102.016 55.6943 101.912 55.4062 101.912C55.1183 101.912 54.8743 102.012 54.6743 102.212C54.4743 102.412 54.3743 102.7 54.3743 103.076C54.3743 103.452 54.4743 103.744 54.6743 103.952C54.8743 104.16 55.1183 104.264 55.4062 104.264ZM55.5503 108.704C56.0223 108.704 56.4063 108.608 56.7023 108.416C56.9983 108.224 57.1463 108.004 57.1463 107.756C57.1463 107.524 57.0543 107.368 56.8703 107.288C56.6943 107.208 56.4383 107.168 56.1023 107.168H55.2983C54.9783 107.168 54.7103 107.14 54.4943 107.084C54.1903 107.316 54.0383 107.576 54.0383 107.864C54.0383 108.128 54.1743 108.332 54.4463 108.476C54.7183 108.628 55.0863 108.704 55.5503 108.704ZM61.8491 107.144C61.3051 107.144 60.8131 107.024 60.3731 106.784C59.9331 106.536 59.5851 106.184 59.3291 105.728C59.0731 105.264 58.9451 104.708 58.9451 104.06C58.9451 103.42 59.0731 102.868 59.3291 102.404C59.5931 101.94 59.9331 101.584 60.3491 101.336C60.7651 101.088 61.2011 100.964 61.6571 100.964C62.1931 100.964 62.6411 101.084 63.0011 101.324C63.3611 101.556 63.6331 101.884 63.8171 102.308C64.0011 102.724 64.0931 103.208 64.0931 103.76C64.0931 104.048 64.0731 104.272 64.0331 104.432H60.2891C60.3531 104.952 60.5411 105.356 60.8531 105.644C61.1651 105.932 61.5571 106.076 62.0291 106.076C62.2851 106.076 62.5211 106.04 62.7371 105.968C62.9611 105.888 63.1811 105.78 63.3971 105.644L63.8651 106.508C63.5851 106.692 63.2731 106.844 62.9291 106.964C62.5851 107.084 62.2251 107.144 61.8491 107.144ZM60.2771 103.496H62.8931C62.8931 103.04 62.7931 102.684 62.5931 102.428C62.3931 102.164 62.0931 102.032 61.6931 102.032C61.3491 102.032 61.0411 102.16 60.7691 102.416C60.5051 102.664 60.3411 103.024 60.2771 103.496ZM65.4112 107V101.108H66.5512L66.6472 101.9H66.6952C66.9592 101.644 67.2472 101.424 67.5592 101.24C67.8712 101.056 68.2272 100.964 68.6272 100.964C69.2592 100.964 69.7192 101.168 70.0072 101.576C70.2952 101.984 70.4392 102.56 70.4392 103.304V107H69.0592V103.484C69.0592 102.996 68.9872 102.652 68.8432 102.452C68.6992 102.252 68.4632 102.152 68.1352 102.152C67.8792 102.152 67.6512 102.216 67.4512 102.344C67.2592 102.464 67.0392 102.644 66.7912 102.884V107H65.4112ZM74.586 107.144C74.05 107.144 73.566 107.024 73.134 106.784C72.71 106.536 72.37 106.184 72.114 105.728C71.866 105.264 71.742 104.708 71.742 104.06C71.742 103.404 71.878 102.848 72.15 102.392C72.422 101.928 72.782 101.576 73.23 101.336C73.686 101.088 74.174 100.964 74.694 100.964C75.07 100.964 75.398 101.028 75.678 101.156C75.958 101.284 76.206 101.44 76.422 101.624L75.75 102.524C75.598 102.388 75.442 102.284 75.282 102.212C75.122 102.132 74.95 102.092 74.766 102.092C74.294 102.092 73.906 102.272 73.602 102.632C73.306 102.992 73.158 103.468 73.158 104.06C73.158 104.644 73.302 105.116 73.59 105.476C73.886 105.836 74.266 106.016 74.73 106.016C74.962 106.016 75.178 105.968 75.378 105.872C75.586 105.768 75.774 105.648 75.942 105.512L76.506 106.424C76.234 106.664 75.93 106.844 75.594 106.964C75.258 107.084 74.922 107.144 74.586 107.144ZM79.896 107.144C79.352 107.144 78.86 107.024 78.42 106.784C77.98 106.536 77.632 106.184 77.376 105.728C77.12 105.264 76.992 104.708 76.992 104.06C76.992 103.42 77.12 102.868 77.376 102.404C77.64 101.94 77.98 101.584 78.396 101.336C78.812 101.088 79.248 100.964 79.704 100.964C80.24 100.964 80.688 101.084 81.048 101.324C81.408 101.556 81.68 101.884 81.864 102.308C82.048 102.724 82.14 103.208 82.14 103.76C82.14 104.048 82.12 104.272 82.08 104.432H78.336C78.4 104.952 78.588 105.356 78.9 105.644C79.212 105.932 79.604 106.076 80.076 106.076C80.332 106.076 80.568 106.04 80.784 105.968C81.008 105.888 81.228 105.78 81.444 105.644L81.912 106.508C81.632 106.692 81.32 106.844 80.976 106.964C80.632 107.084 80.272 107.144 79.896 107.144ZM78.324 103.496H80.94C80.94 103.04 80.84 102.684 80.64 102.428C80.44 102.164 80.14 102.032 79.74 102.032C79.396 102.032 79.088 102.16 78.816 102.416C78.552 102.664 78.388 103.024 78.324 103.496Z" fill="white"/>
<path d="M103 87C103 45.5786 136.579 12 178 12H343V117H103V87Z" fill="#69C7CF"/>
<path d="M212 97C212 55.5786 245.579 22 287 22H343V117H212V97Z" fill="#3D566A"/>
<path fill-rule="evenodd" clip-rule="evenodd" d="M52.4933 73.608V71.9478C52.4951 71.8628 52.5031 71.8349 52.5198 71.7845C52.5897 71.5749 52.8058 71.4282 53.0285 71.4327C53.1132 71.4379 53.1407 71.447 53.1903 71.4658C53.3835 71.5392 53.518 71.7382 53.5223 71.9478V73.6087C54.084 73.7932 54.5546 74.2639 54.6984 74.8538C54.8942 75.6579 54.4326 76.5681 53.6657 76.8825C52.7859 77.2429 51.6438 76.7454 51.346 75.7861C51.0769 74.9192 51.6121 73.9024 52.4933 73.608ZM57.0993 73.608V71.9478C57.1045 71.6882 57.3141 71.4549 57.5723 71.434C57.6125 71.4307 57.6218 71.4325 57.6344 71.4327C57.7191 71.4379 57.7467 71.447 57.7962 71.4658C57.9895 71.5392 58.124 71.7382 58.1282 71.9478V73.609C58.7044 73.7989 59.1822 74.2906 59.314 74.8958C59.4866 75.6886 59.0263 76.5733 58.2715 76.8825C57.3918 77.2428 56.2501 76.745 55.9521 75.7863C55.6825 74.9192 56.2179 73.9024 57.0993 73.608ZM47.8874 73.608V71.9478C47.8891 71.8628 47.8971 71.8349 47.9139 71.7845C47.9838 71.5749 48.1998 71.4282 48.4226 71.4327C48.6901 71.449 48.9104 71.6503 48.9164 71.9478V73.6092C49.4905 73.7988 49.9699 74.2884 50.1021 74.8958C50.2747 75.6885 49.8144 76.5732 49.0597 76.8825C48.0951 77.2777 46.8213 76.6308 46.6758 75.4898C46.5737 74.6894 47.1061 73.8674 47.8874 73.608ZM48.3972 74.5555C48.0807 74.5584 47.7813 74.793 47.7089 75.1069C47.6144 75.5169 47.9606 75.975 48.3926 75.9805C48.9213 75.9874 49.334 75.269 48.9453 74.8087C48.8113 74.65 48.6055 74.5548 48.3972 74.5555ZM57.609 74.5555C57.125 74.5599 56.7369 75.1572 56.9923 75.6146C57.2553 76.0858 58.1165 76.0742 58.2955 75.4716C58.4189 75.0562 58.0926 74.563 57.6231 74.5555C57.6184 74.5555 57.6137 74.5554 57.609 74.5555ZM53.0031 74.5555C52.5222 74.5599 52.1335 75.1486 52.3822 75.6071C52.6427 76.0875 53.5335 76.0802 53.6967 75.4461C53.801 75.0408 53.4884 74.5746 53.0356 74.556C53.0248 74.5556 53.014 74.5554 53.0031 74.5555ZM57.3598 52.1479C59.3163 52.1665 61.2228 53.4857 61.8901 55.3832C62.0677 55.8885 62.1585 56.4212 62.1637 56.9613C62.1735 59.8582 62.1638 62.7552 62.1638 65.6521C62.1571 67.6296 60.8398 69.5489 58.9348 70.2217C58.4296 70.4001 57.8951 70.4908 57.3597 70.4959C54.4686 70.5052 51.5774 70.496 48.6862 70.496C46.7053 70.4896 44.7917 69.1549 44.1256 67.2606C43.9479 66.7553 43.8571 66.2226 43.8519 65.6825C43.8422 62.7856 43.8519 59.8887 43.8519 56.9918C43.8585 55.0157 45.1732 53.0958 47.0808 52.4221C47.586 52.2437 48.1205 52.153 48.6559 52.1479C51.5571 52.1385 54.4585 52.1385 57.3598 52.1479ZM40.7362 68.2566C40.5784 68.7399 40.2209 69.1616 39.7469 69.3556C38.8612 69.7183 37.7095 69.2091 37.4212 68.2388C37.1222 67.2322 37.8818 66.0316 39.0446 65.9981C39.0632 65.9978 39.0818 65.9976 39.1004 65.9976C39.8329 66.0047 40.5287 66.5197 40.7514 67.2256H42.4029C42.4098 67.2258 42.4167 67.226 42.4236 67.2261C42.8063 67.2493 43.0685 67.7657 42.788 68.083C42.6918 68.1918 42.5468 68.2537 42.4029 68.2566H40.7362ZM65.2884 67.2256C65.5122 66.5654 66.1135 66.0202 66.8818 65.9981C66.9004 65.9978 66.919 65.9976 66.9376 65.9976C67.7183 66.0052 68.4572 66.5889 68.6267 67.3692C68.7994 68.164 68.3359 69.0476 67.5842 69.3556C66.7029 69.7166 65.5589 69.2085 65.2638 68.2566H63.6127C63.2175 68.2487 62.949 67.7145 63.2276 67.3993C63.3238 67.2905 63.4688 67.2285 63.6127 67.2256H65.2884ZM48.6879 53.1788C47.1238 53.1838 45.6226 54.2284 45.096 55.7258C44.956 56.1241 44.8849 56.545 44.8809 56.968C44.8711 59.862 44.8808 62.7562 44.8808 65.6503C44.886 67.2023 45.9155 68.717 47.4229 69.2494C47.82 69.3896 48.2396 69.4609 48.6624 69.4649C51.5593 69.4743 54.4563 69.4743 57.3532 69.4649C59.2766 69.4468 61.0555 67.8197 61.132 65.7989C61.1336 65.7579 61.1344 65.7169 61.1348 65.6758C61.1445 62.7818 61.1348 59.8876 61.1348 56.9935C61.1296 55.4412 60.093 53.9243 58.5928 53.3944C58.1956 53.2542 57.7762 53.1829 57.3532 53.1789C54.4648 53.1695 51.5763 53.1788 48.6879 53.1788ZM39.0845 67.0286C38.8164 67.0312 38.5578 67.1974 38.4442 67.4407C38.2447 67.868 38.5938 68.457 39.0938 68.4537C39.6272 68.4502 40.0299 67.7079 39.6099 67.2561C39.4763 67.1124 39.2831 67.028 39.0845 67.0286ZM66.9218 67.0286C66.379 67.0338 65.9875 67.7978 66.4176 68.2386C66.7554 68.585 67.4565 68.4553 67.6082 67.9446C67.7299 67.5352 67.4149 67.048 66.9542 67.0291C66.9434 67.0287 66.9326 67.0285 66.9218 67.0286ZM57.1986 54.2742C58.6268 54.288 59.9611 55.4824 60.0379 56.9941C60.0401 57.0369 60.0411 57.0798 60.0415 57.1226C60.0528 59.9221 60.0528 62.7217 60.0415 65.5212C60.0276 67.0012 58.7654 68.3542 57.1986 68.3696C54.4048 68.378 51.6108 68.378 48.817 68.3696C47.3378 68.3551 45.9887 67.0711 45.9741 65.5209C45.9666 62.7216 45.9666 59.9222 45.9741 57.1229C45.988 55.6405 47.2737 54.2891 48.817 54.2742C51.6108 54.2653 54.4048 54.2653 57.1986 54.2742ZM48.8363 55.3052C47.8852 55.3082 47.0124 56.1246 47.003 57.1292C46.9955 59.9244 46.9955 62.7195 47.003 65.5146C47.0119 66.4603 47.8209 67.3228 48.8117 67.3385C51.605 67.3658 54.3986 67.347 57.1921 67.3386C58.1407 67.3293 59.0032 66.5181 59.0126 65.5142C59.0238 62.7194 59.0238 59.9244 59.0126 57.1296C59.0038 56.1839 58.1969 55.3149 57.1921 55.3052C54.4068 55.2963 51.6215 55.3052 48.8363 55.3052ZM65.2904 62.6106C65.5166 61.9497 66.1211 61.4046 66.8818 61.3831C66.9004 61.3827 66.919 61.3825 66.9376 61.3826C67.7182 61.3898 68.4572 61.9738 68.6267 62.7542C68.7994 63.549 68.3359 64.4325 67.5843 64.7405C66.7029 65.1017 65.5589 64.5936 65.2638 63.6416H63.6127C63.1673 63.6326 62.8938 62.922 63.3737 62.6696C63.4287 62.6407 63.489 62.6219 63.5507 62.6144C63.5713 62.6118 63.592 62.611 63.6127 62.6106H65.2904ZM40.7362 63.6416C40.5784 64.1248 40.2209 64.5464 39.747 64.7406C38.8602 65.1038 37.7074 64.5873 37.4212 63.6237C37.1211 62.6134 37.909 61.4152 39.0446 61.3831C39.0632 61.3827 39.0818 61.3825 39.1004 61.3826C39.8356 61.3894 40.5289 61.9047 40.7514 62.6106H42.4029C42.4098 62.6108 42.4167 62.6109 42.4236 62.611C42.8091 62.6344 43.0667 63.1528 42.788 63.4679C42.6918 63.5768 42.5468 63.6387 42.4029 63.6416H40.7362ZM51.0664 61.9364V63.737C51.0664 63.737 51.0425 64.024 50.8441 64.1612C50.5394 64.372 50.0509 64.1829 50.0375 63.737V60.3594C50.0415 60.2233 50.0947 60.0944 50.1881 59.9949L51.6328 58.5474C51.7317 58.4541 51.8603 58.4006 51.9966 58.3965H53.7301C53.7405 58.3968 53.7508 58.3971 53.7612 58.3974C53.8623 58.4066 53.8894 58.4184 53.9413 58.4419C54.122 58.5233 54.2371 58.6651 54.2446 58.9119V63.737C54.2313 64.1765 53.5398 64.4827 53.2746 63.9765C53.2377 63.906 53.2195 63.8644 53.2157 63.737V61.9364H51.0664ZM55.4948 58.3974C55.5899 58.4061 55.6053 58.4144 55.6461 58.43C55.8415 58.5042 55.9704 58.6559 55.9782 58.9119V63.737C55.9666 64.1226 55.834 64.1353 55.6749 64.207C55.3753 64.3421 54.9714 64.1195 54.9502 63.7681C54.9495 63.7577 54.9495 63.7473 54.9492 63.737V58.9119C54.9523 58.8103 54.9625 58.7825 54.9827 58.7291C55.0568 58.5333 55.2082 58.4042 55.4637 58.3965C55.4741 58.3968 55.4844 58.3971 55.4948 58.3974ZM39.0845 62.4135C38.8168 62.416 38.5578 62.5823 38.4442 62.8257C38.2459 63.2504 38.5886 63.8356 39.0845 63.8387C39.3951 63.8406 39.6937 63.6171 39.7758 63.3129C39.8873 62.8996 39.5631 62.4211 39.0986 62.4136C39.0939 62.4135 39.0892 62.4135 39.0845 62.4135ZM66.9218 62.4135C66.6475 62.4161 66.3839 62.5907 66.2743 62.8414C66.0895 63.2641 66.43 63.8323 66.9172 63.8386C67.4376 63.8453 67.8715 63.1429 67.4697 62.6666C67.3358 62.5079 67.1301 62.4128 66.9218 62.4135ZM53.2157 60.8969V59.4274H52.2097L51.0664 60.573V60.9038C51.7828 60.8996 52.4994 60.8895 53.2157 60.8969ZM38.3772 50.1898C38.2162 50.207 37.9191 50.1782 37.6493 50.2091C35.7524 50.4266 34.1341 52.1209 34.0009 54.0311C33.8455 56.2589 35.7092 58.4424 38.0974 58.4652C39.2176 58.4688 40.3379 58.4719 41.458 58.4747C41.7348 58.4753 41.9587 58.7003 41.9587 58.9775C41.9587 59.1111 41.9056 59.2393 41.8113 59.3337C41.7169 59.428 41.5889 59.4808 41.4556 59.4805C40.3341 59.4778 39.2125 59.4746 38.091 59.471C36.0622 59.4517 34.1112 58.1253 33.3552 56.2398C32.5436 54.2155 33.192 51.6955 34.9047 50.3134C35.714 49.6602 36.7197 49.2652 37.7622 49.1888C37.7622 49.1888 37.6677 48.6815 37.6395 48.2783C37.4627 45.7446 38.7695 43.1566 40.9362 41.8009C42.3402 40.9224 44.0581 40.5721 45.7002 40.8131C45.7002 40.8131 45.9907 40.4132 46.2542 40.1061C47.8904 38.1996 50.3609 37.0365 52.8908 37.0006C52.9398 37.0001 52.9887 36.9999 53.0377 37C55.8764 37.0172 58.6358 38.4478 60.2923 40.8085C60.2923 40.8085 60.764 40.745 61.215 40.7366C63.9038 40.6865 66.5446 42.319 67.7039 44.7656C68.3494 46.128 68.5358 47.6998 68.2403 49.1819C68.2403 49.1819 68.6514 49.2236 68.9747 49.2941C70.8098 49.6948 72.3641 51.183 72.8451 53.0073C73.2939 54.7097 72.7963 56.628 71.5744 57.8968C70.627 58.8806 69.2848 59.4579 67.9108 59.471C66.7893 59.4746 65.6677 59.4778 64.5463 59.4805C64.4129 59.4808 64.285 59.428 64.1906 59.3337C64.0962 59.2393 64.0432 59.1112 64.0432 58.9777C64.0432 58.7004 64.2671 58.4753 64.5438 58.4747C65.664 58.4719 66.7843 58.4688 67.9045 58.4652C69.7198 58.4479 71.4412 57.1145 71.8873 55.3336C72.2429 53.9139 71.7773 52.3159 70.7108 51.3091C69.9082 50.5515 68.7992 50.1412 67.6881 50.1866C67.6538 50.2015 67.618 50.2136 67.5812 50.2228C67.5665 50.2266 67.5666 50.2266 67.5519 50.2306C66.5957 50.4961 65.7366 51.1729 65.2216 52.0274C65.2216 52.0274 64.9669 52.3251 64.6781 52.2659C64.3509 52.1988 64.1642 51.783 64.3582 51.4657C64.9902 50.432 66.034 49.61 67.1658 49.2689C67.229 48.9864 67.3228 48.6515 67.352 48.3208C67.5576 45.9928 66.2831 43.5942 64.2196 42.4703C63.0142 41.8138 61.5832 41.5951 60.232 41.8447L60.1886 41.8468C60.1753 41.8506 60.1749 41.8507 60.1608 41.8549C59.2117 42.1413 58.3689 42.8312 57.8705 43.7021C57.8705 43.7021 57.7487 43.8963 57.5477 43.9461C57.1589 44.0424 56.7561 43.5701 56.9948 43.1599C57.5131 42.2692 58.3371 41.5231 59.2557 41.0974C57.8124 39.2394 55.5322 38.0506 53.1313 38.0068C53.077 38.006 53.0227 38.0057 52.9683 38.0059C50.5578 38.0205 48.1996 39.2075 46.7214 41.1296C46.7816 41.1622 46.8415 41.1956 46.9013 41.2287C47.7372 41.6921 48.4721 42.3555 48.9463 43.1751C48.9463 43.1751 49.0611 43.3894 49.0015 43.5917C48.8899 43.9702 48.2869 44.0933 48.0549 43.6901C48.0485 43.6789 48.0419 43.6677 48.0353 43.6566C48.0265 43.6418 48.0177 43.6271 48.0087 43.6124C47.5718 42.9059 46.9019 42.351 46.148 42.0007C46.0073 41.9353 45.8623 41.8783 45.7123 41.8383C45.7123 41.8383 45.7056 41.8361 45.6939 41.8315C43.7367 41.4996 41.6083 42.1972 40.2417 43.6677C38.8806 45.1324 38.3278 47.2864 38.8058 49.2449C38.8323 49.253 38.8588 49.2615 38.8853 49.2698C40.0411 49.6336 41.0723 50.4495 41.6932 51.4659C41.909 51.8194 41.5894 52.3763 41.1409 52.2599C40.9776 52.2175 40.8735 52.0913 40.7672 51.9276C40.226 51.1001 39.3661 50.4404 38.4396 50.2153C38.4396 50.2153 38.4145 50.2072 38.3772 50.1898ZM57.0993 49.0169C56.5827 48.8486 56.1338 48.4551 55.9585 47.9145C55.6291 46.8985 56.4059 45.6662 57.5691 45.6327C57.5877 45.6324 57.6063 45.6322 57.6249 45.6322C58.4093 45.6396 59.1452 46.2283 59.314 47.0035C59.4866 47.7963 59.0263 48.6811 58.2715 48.9902C58.2244 49.0095 58.1766 49.0263 58.1282 49.0408V50.696C58.1215 51.0304 57.7497 51.299 57.4313 51.178C57.2377 51.1044 57.1035 50.9057 57.0993 50.696V49.0169ZM52.4933 49.0165C51.9704 48.8458 51.5169 48.4444 51.346 47.8939C51.0319 46.8817 51.814 45.6658 52.9631 45.6327C52.9818 45.6324 53.0004 45.6322 53.0189 45.6322C53.7885 45.6395 54.5131 46.2015 54.6984 46.9615C54.8942 47.7656 54.4326 48.6759 53.6657 48.9902C53.6186 49.0094 53.5707 49.0263 53.5223 49.0408V50.696C53.5144 51.0865 52.9922 51.3708 52.6667 51.0819C52.558 50.9854 52.4962 50.8401 52.4933 50.696V49.0165ZM47.8874 49.0117C47.2789 48.8085 46.7643 48.2912 46.6758 47.5975C46.5542 46.645 47.3317 45.6623 48.3572 45.6327C48.3758 45.6324 48.3944 45.6322 48.413 45.6322C49.178 45.6395 49.9072 46.2015 50.0924 46.9615C50.2883 47.7656 49.8267 48.6759 49.0597 48.9902C49.0126 49.0095 48.9647 49.0263 48.9164 49.0407V50.696C48.9074 51.1432 48.1982 51.4163 47.9463 50.9356C47.9175 50.8804 47.8987 50.82 47.8912 50.7582C47.8887 50.7375 47.8878 50.7168 47.8874 50.696V49.0117ZM57.609 46.6632C57.125 46.6678 56.7369 47.2649 56.9923 47.7223C57.2553 48.1935 58.1165 48.1821 58.2955 47.5793C58.4189 47.1641 58.0939 46.6708 57.6231 46.6633C57.6184 46.6632 57.6137 46.6632 57.609 46.6632ZM53.0031 46.6632C52.5174 46.6678 52.131 47.2649 52.3863 47.7223C52.6492 48.1932 53.5106 48.1821 53.6896 47.5793C53.8112 47.1699 53.4993 46.6829 53.0356 46.6637C53.0248 46.6633 53.014 46.6631 53.0031 46.6632ZM48.3972 46.6632C47.9073 46.6678 47.5234 47.2744 47.7847 47.7299C48.0551 48.2013 48.9315 48.1723 49.0907 47.5538C49.1977 47.1382 48.8658 46.6617 48.3972 46.6632Z" fill="white"/>
<path fill-rule="evenodd" clip-rule="evenodd" d="M168.424 74.2701C168.409 74.2606 168.394 74.2501 168.379 74.2385C168.352 74.2173 168.346 74.2105 168.322 74.1864L166.189 71.9202C166.051 71.7628 166.044 71.6942 166.038 71.5337V66.2014C166.047 65.9305 166.242 65.6879 166.496 65.6581C166.568 65.6497 166.586 65.6564 166.609 65.6581C166.836 65.6937 167.028 65.8824 167.062 66.1219C167.066 66.157 167.066 66.166 167.067 66.2014V71.3073L169.05 73.4134C169.05 73.4134 169.085 73.4599 169.12 73.5339C169.342 73.4033 169.595 73.3241 169.867 73.3159C169.885 73.3154 169.904 73.3152 169.923 73.3153C170.713 73.3231 171.455 73.9577 171.616 74.792C171.777 75.6278 171.315 76.5518 170.569 76.8757C169.683 77.2604 168.532 76.7205 168.243 75.6916C168.11 75.2154 168.192 74.6993 168.424 74.2701ZM152.858 73.5257C152.88 73.4855 152.907 73.4478 152.937 73.4134L154.919 71.3073V66.2014C154.919 66.2014 154.942 65.946 155.077 65.808C155.158 65.7248 155.265 65.6713 155.377 65.6581C155.449 65.6497 155.467 65.6564 155.49 65.6581C155.604 65.676 155.622 65.6897 155.669 65.7154C155.836 65.8066 155.941 65.9999 155.948 66.2014V71.5337C155.941 71.7486 155.9 71.8027 155.797 71.9202L153.664 74.1864C153.632 74.2181 153.607 74.2403 153.585 74.2568C153.673 74.415 153.738 74.5874 153.775 74.7696C153.948 75.6123 153.484 76.5491 152.733 76.8756C151.846 77.261 150.693 76.7136 150.407 75.6916C150.107 74.6216 150.894 73.35 152.03 73.3159C152.049 73.3154 152.067 73.3152 152.086 73.3153C152.356 73.318 152.621 73.3938 152.858 73.5257ZM152.07 74.4084C151.802 74.4111 151.543 74.5874 151.43 74.8455C151.232 75.2957 151.574 75.9162 152.07 75.9194C152.602 75.923 153.014 75.15 152.607 74.6631C152.476 74.5064 152.283 74.4118 152.084 74.4085C152.079 74.4084 152.075 74.4084 152.07 74.4084ZM169.907 74.4084C169.42 74.4132 169.032 75.0559 169.294 75.5392C169.564 76.0366 170.433 76.0105 170.598 75.362C170.71 74.9202 170.376 74.4067 169.907 74.4084ZM160.479 72.1022V68.6009C160.481 68.5079 160.489 68.482 160.504 68.432C160.565 68.2328 160.742 68.0794 160.939 68.0574C160.991 68.0516 161.003 68.0547 161.02 68.0551C161.119 68.0634 161.148 68.0761 161.202 68.1016C161.366 68.1792 161.486 68.3531 161.505 68.5438C161.507 68.5692 161.507 68.5755 161.508 68.6009V72.1024C162.077 72.3007 162.551 72.8108 162.689 73.4449C162.873 74.291 162.412 75.243 161.651 75.5735C160.764 75.9589 159.611 75.4115 159.325 74.3895C159.068 73.4736 159.607 72.4121 160.479 72.1022ZM160.988 73.1063C160.72 73.109 160.461 73.2859 160.348 73.5434C160.151 73.9917 160.491 74.6074 160.979 74.6173C161.29 74.6235 161.591 74.3905 161.677 74.0685C161.794 73.6339 161.472 73.1267 161.021 73.1069C161.01 73.1065 160.999 73.1063 160.988 73.1063ZM175.508 72.518H173.866C173.664 72.5103 173.613 72.4673 173.502 72.3579L170.204 68.8541C170.066 68.6967 170.059 68.6281 170.053 68.4676V63.6686C170.063 63.3983 170.258 63.1565 170.509 63.1257C170.584 63.1164 170.603 63.1237 170.627 63.1257C170.878 63.1668 171.073 63.3952 171.082 63.6686V68.2412L174.079 71.4249H175.53C175.749 70.7258 176.344 70.1473 177.126 70.1234C177.145 70.1229 177.163 70.1227 177.182 70.1228C177.966 70.1309 178.703 70.7546 178.871 71.5771C179.044 72.4196 178.58 73.3566 177.829 73.6831C176.949 74.0653 175.807 73.5378 175.509 72.521L175.508 72.518ZM146.478 71.4249H147.907L150.904 68.2412V63.6686C150.908 63.5401 150.92 63.519 150.941 63.4643C151.024 63.2455 151.243 63.1066 151.477 63.1257C151.728 63.1668 151.923 63.3952 151.933 63.6686V68.4676C151.925 68.6826 151.885 68.7366 151.782 68.8541L148.484 72.3579C148.402 72.4386 148.302 72.4958 148.193 72.5124C148.161 72.5173 148.153 72.5167 148.12 72.518H146.462C146.305 73.0303 145.947 73.4774 145.473 73.6832C144.593 74.0651 143.452 73.5373 143.154 72.521C142.839 71.449 143.608 70.1588 144.771 70.1234C144.789 70.1229 144.808 70.1227 144.827 70.1228C145.561 70.1304 146.255 70.6763 146.478 71.4249ZM177.166 71.2159C176.897 71.2187 176.639 71.3959 176.526 71.6529C176.326 72.106 176.676 72.7303 177.175 72.7269C177.709 72.7234 178.108 71.9328 177.691 71.457C177.558 71.3047 177.364 71.2152 177.166 71.2159ZM144.811 71.2159C144.322 71.2209 143.936 71.8632 144.198 72.3467C144.468 72.8442 145.337 72.8179 145.502 72.1695C145.614 71.7276 145.28 71.2142 144.811 71.2159ZM167.902 49.3143C168.179 49.566 168.398 49.8996 168.616 50.2268C169.122 50.9865 169.524 51.8221 169.812 52.6999L169.83 52.7564L169.857 52.9122C169.852 52.9647 169.854 53.0186 169.841 53.0697C169.808 53.2085 169.772 53.2309 169.689 53.338L168.246 54.7276C168.36 55.5051 168.363 56.3122 168.252 57.0989L168.246 57.1432L169.689 58.5328C169.772 58.6399 169.808 58.6623 169.841 58.8011C169.873 58.9327 169.843 59.0762 169.802 59.1998C169.416 60.3727 168.816 61.4692 168.052 62.4085L168.015 62.4536L167.902 62.5566C167.783 62.6127 167.753 62.6433 167.618 62.6404C167.568 62.6394 167.52 62.623 167.471 62.6143L165.616 61.9814C165.034 62.4794 164.378 62.8837 163.687 63.1729L163.647 63.1892L163.236 65.2117C163.19 65.3417 163.19 65.3858 163.094 65.4862C163.002 65.5818 162.869 65.6257 162.749 65.6498C161.582 65.8846 160.37 65.8773 159.203 65.6325L159.062 65.5797C158.957 65.4978 158.917 65.4856 158.852 65.3601C158.828 65.3138 158.817 65.2611 158.8 65.2117L158.388 63.1892C157.693 62.9032 157.038 62.5048 156.452 62.0095L156.419 61.9814L154.565 62.6143C154.436 62.6372 154.4 62.6589 154.27 62.6206C154.146 62.5841 154.044 62.4831 153.964 62.3854C153.19 61.4303 152.59 60.3103 152.205 59.1144L152.178 58.9586C152.192 58.8207 152.182 58.7778 152.252 58.655C152.278 58.6099 152.315 58.5735 152.347 58.5328L153.79 57.1432C153.675 56.359 153.672 55.5585 153.784 54.7719L153.79 54.7276L152.347 53.338C152.264 53.2309 152.228 53.2085 152.194 53.0697C152.162 52.9381 152.192 52.7946 152.233 52.671C152.62 51.4964 153.212 50.4105 153.983 49.4623L154.02 49.4172L154.134 49.3143C154.253 49.2581 154.283 49.2275 154.418 49.2304C154.468 49.2315 154.516 49.2478 154.565 49.2565L156.419 49.8895C157.003 49.3895 157.652 48.989 158.349 48.6979L158.388 48.6816L158.8 46.6591C158.845 46.5291 158.846 46.485 158.942 46.3845C159.034 46.2889 159.168 46.2449 159.286 46.221C160.453 45.9864 161.665 45.9935 162.833 46.2383L162.973 46.2911C163.013 46.3223 163.058 46.3476 163.094 46.3846C163.19 46.485 163.19 46.5292 163.236 46.6591L163.647 48.6816C164.339 48.9654 164.997 49.3661 165.583 49.8612L165.616 49.8895L167.471 49.2565C167.617 49.2305 167.618 49.2305 167.766 49.2502C167.811 49.2716 167.857 49.2929 167.902 49.3143ZM160.992 47.1416C160.577 47.1436 160.163 47.1781 159.754 47.2447L159.733 47.2482L159.334 49.2078L159.268 49.3808C159.229 49.4273 159.197 49.4815 159.152 49.5202C159.063 49.5949 158.951 49.6257 158.851 49.6648C158.126 49.9487 157.451 50.3756 156.871 50.9138L156.721 51.0108C156.55 51.0483 156.548 51.0484 156.375 51.0226L154.579 50.4094C154.043 51.1155 153.611 51.9101 153.301 52.7529L153.294 52.7742L154.692 54.1206L154.8 54.2678C154.818 54.3269 154.846 54.3835 154.855 54.4451C154.886 54.6627 154.806 54.8744 154.78 55.0981C154.695 55.8101 154.72 56.5358 154.851 57.2391L154.855 57.4257C154.8 57.6021 154.799 57.6037 154.692 57.7502L153.294 59.0965C153.601 59.942 154.032 60.7367 154.565 61.4437L154.579 61.4615L156.375 60.8482L156.549 60.8223C156.607 60.8348 156.667 60.8372 156.721 60.8601C156.827 60.9041 156.908 60.9916 156.99 61.0645C157.583 61.5886 158.267 61.9964 158.997 62.2611L159.152 62.3506C159.268 62.4893 159.269 62.4909 159.334 62.663L159.733 64.6226C160.576 64.7625 161.439 64.7629 162.282 64.6261L162.303 64.6226L162.701 62.663L162.767 62.49C162.806 62.4435 162.838 62.3893 162.884 62.3506C162.973 62.2758 163.084 62.2451 163.185 62.2061C163.91 61.9221 164.585 61.495 165.164 60.957L165.314 60.8601C165.485 60.8225 165.487 60.8224 165.66 60.8482L167.457 61.4615C167.997 60.7503 168.431 59.9498 168.742 59.0965L167.344 57.7502C167.271 57.6514 167.198 57.5481 167.181 57.426C167.164 57.307 167.195 57.1888 167.213 57.077C167.344 56.2674 167.334 55.437 167.185 54.6313L167.181 54.4448C167.235 54.2686 167.236 54.2669 167.344 54.1206L168.742 52.7742C168.434 51.9279 168.003 51.1337 167.47 50.4271L167.457 50.4094L165.66 51.0226L165.486 51.0485C165.429 51.0359 165.369 51.0335 165.314 51.0108C165.209 50.9667 165.128 50.8793 165.046 50.8064C164.452 50.2813 163.77 49.875 163.038 49.6097L162.884 49.5202C162.768 49.3816 162.767 49.3799 162.701 49.2078L162.303 47.2482C161.87 47.1763 161.429 47.1409 160.992 47.1416ZM160.993 60.758C161.305 60.758 161.558 61.0268 161.558 61.3579C161.558 61.689 161.305 61.9577 160.993 61.9577C160.681 61.9577 160.428 61.689 160.428 61.3579C160.428 61.0268 160.681 60.758 160.993 60.758ZM146.382 50.9832C146.378 50.9837 146.374 50.9842 146.37 50.9847C146.209 51.0031 145.912 50.9723 145.641 51.0052C143.745 51.2358 142.126 53.0322 141.993 55.0576C141.838 57.4197 143.701 59.7348 146.09 59.759C147.21 59.7627 148.33 59.7661 149.45 59.769C149.727 59.7697 149.951 60.0082 149.951 60.3022C149.951 60.4438 149.898 60.5797 149.803 60.6797C149.709 60.7797 149.581 60.8357 149.448 60.8354C148.326 60.8325 147.205 60.8291 146.083 60.8254C144.054 60.8049 142.103 59.3986 141.347 57.3994C140.536 55.2531 141.184 52.5812 142.897 51.1157C143.706 50.4232 144.712 50.0044 145.754 49.9235C145.754 49.9235 145.66 49.3855 145.632 48.9581C145.455 46.2716 146.762 43.5277 148.928 42.0902C150.332 41.1588 152.05 40.7875 153.692 41.0429C153.692 41.0429 153.983 40.6189 154.246 40.2934C155.883 38.2719 158.353 37.0388 160.883 37.0007C160.932 37.0001 160.981 36.9999 161.03 37C163.869 37.0183 166.628 38.5351 168.284 41.038C168.284 41.038 168.756 40.9708 169.207 40.9618C171.896 40.9087 174.537 42.6396 175.696 45.2337C176.342 46.6782 176.528 48.3446 176.232 49.9161C176.232 49.9161 176.644 49.9602 176.967 50.0351C178.802 50.4599 180.356 52.0378 180.837 53.972C181.286 55.7771 180.788 57.811 179.567 59.1562C178.619 60.1993 177.277 60.8115 175.903 60.8254C174.781 60.8291 173.66 60.8325 172.538 60.8354C172.405 60.8357 172.277 60.7797 172.183 60.6797C172.088 60.5797 172.035 60.4439 172.035 60.3022C172.035 60.0083 172.259 59.7697 172.536 59.769C173.656 59.7661 174.776 59.7627 175.897 59.759C177.712 59.7406 179.433 58.3268 179.879 56.4386C180.235 54.9333 179.769 53.239 178.703 52.1715C177.9 51.3682 176.791 50.9332 175.68 50.9813C175.646 50.9972 175.61 51.0099 175.573 51.0197C175.559 51.0238 175.559 51.0238 175.544 51.0279C174.589 51.3095 173.73 52.0246 173.214 52.933C173.214 52.933 173.049 53.1665 172.833 53.1933C172.453 53.2408 172.116 52.7447 172.35 52.3378C172.98 51.2445 174.026 50.3702 175.158 50.0083C175.221 49.7089 175.315 49.3538 175.344 49.0032C175.55 46.5348 174.275 43.9916 172.212 42.8C171.006 42.1039 169.575 41.872 168.224 42.1366L168.181 42.139C168.168 42.143 168.167 42.1431 168.153 42.1475C167.214 42.4478 166.38 43.1683 165.876 44.0817C165.876 44.0817 165.736 44.3237 165.517 44.3701C165.131 44.4521 164.748 43.9664 164.987 43.5311C165.504 42.5889 166.329 41.7965 167.248 41.3445C165.805 39.3744 163.525 38.114 161.124 38.0675C161.069 38.0667 161.015 38.0664 160.96 38.0664C158.553 38.0819 156.197 39.3377 154.719 41.3715C154.853 41.4504 154.987 41.5373 155.119 41.6238C155.852 42.1034 156.497 42.7418 156.93 43.5311C157.14 43.9136 156.796 44.4969 156.355 44.3583C156.149 44.2937 156.046 44.07 155.901 43.8487C155.37 43.0394 154.563 42.3723 153.704 42.1299C153.704 42.1299 153.698 42.1275 153.687 42.1228C151.729 41.7707 149.601 42.5102 148.234 44.0696C146.876 45.6192 146.322 47.8963 146.795 49.9693C147.096 50.0409 147.363 50.1998 147.633 50.3522C148.464 50.8218 149.202 51.4954 149.694 52.3533C149.694 52.3533 149.846 52.6848 149.701 52.936C149.518 53.2534 149.016 53.2737 148.814 52.9202C148.808 52.9085 148.801 52.8968 148.794 52.8851C148.348 52.1286 147.649 51.5353 146.871 51.1738C146.729 51.1078 146.583 51.0506 146.432 51.0118C146.432 51.0118 146.412 51.0021 146.382 50.9832ZM161.041 52.0313C162.393 52.045 163.707 52.9123 164.31 54.2003C164.806 55.2581 164.818 56.5517 164.33 57.6278C163.536 59.379 161.407 60.3363 159.608 59.5416C158.435 59.0233 157.555 57.8189 157.378 56.4806C157.215 55.2421 157.652 53.9306 158.515 53.0777C159.181 52.4184 160.077 52.0406 160.994 52.0313C161.01 52.0313 161.026 52.0313 161.041 52.0313ZM165.64 58.2252C165.951 58.2252 166.204 58.494 166.204 58.8251C166.204 59.1562 165.951 59.4249 165.64 59.4249C165.328 59.4249 165.075 59.1562 165.075 58.8251C165.075 58.494 165.328 58.2252 165.64 58.2252ZM156.597 58.2252C156.909 58.2252 157.162 58.494 157.162 58.8251C157.162 59.1562 156.909 59.4249 156.597 59.4249C156.286 59.4249 156.033 59.1562 156.033 58.8251C156.033 58.494 156.286 58.2252 156.597 58.2252ZM161.001 53.1244C159.792 53.1366 158.65 54.1233 158.419 55.403C158.255 56.3125 158.546 57.2994 159.17 57.9464C159.9 58.7039 161.057 58.9559 162.017 58.5388C162.864 58.1711 163.503 57.3098 163.636 56.3463C163.845 54.8318 162.711 53.2431 161.205 53.1312C161.137 53.1262 161.069 53.1242 161.001 53.1244ZM165.64 52.7596C165.951 52.7596 166.204 53.0285 166.204 53.3595C166.204 53.6906 165.951 53.9594 165.64 53.9594C165.328 53.9594 165.075 53.6906 165.075 53.3595C165.075 53.0285 165.328 52.7596 165.64 52.7596ZM156.597 52.7596C156.909 52.7596 157.162 53.0285 157.162 53.3595C157.162 53.6906 156.909 53.9594 156.597 53.9594C156.286 53.9594 156.033 53.6906 156.033 53.3595C156.033 53.0285 156.286 52.7596 156.597 52.7596ZM160.993 50.2048C161.305 50.2048 161.558 50.4735 161.558 50.8046C161.558 51.1357 161.305 51.4045 160.993 51.4045C160.681 51.4045 160.428 51.1357 160.428 50.8046C160.428 50.4735 160.681 50.2048 160.993 50.2048Z" fill="white"/>
<path fill-rule="evenodd" clip-rule="evenodd" d="M292.067 77H287.17C286.967 76.9901 286.958 76.9817 286.815 76.8357L282.449 71.9596C282.312 71.7926 282.311 71.779 282.302 71.5632V68.208C282.32 67.7647 282.831 67.4764 283.142 67.7937C283.242 67.8955 283.296 67.9761 283.306 68.208V71.331L287.378 75.8788H291.859L293.447 74.1052C292.638 73.045 293.197 70.9294 294.716 70.8973C294.738 70.8971 294.738 70.8971 294.761 70.8973C295.899 70.9213 296.831 72.4214 296.295 73.6634C295.96 74.4397 295.108 74.8326 294.355 74.6762L292.422 76.8357C292.272 76.9887 292.26 76.9905 292.067 77ZM276.493 37.0001C278.88 37.0254 281.075 39.3077 281.1 42.1453C281.126 52.0484 281.126 61.9516 281.1 71.8547C281.082 73.8902 279.898 75.8481 278.215 76.6167C275.585 77.8178 272.114 75.7846 271.842 72.2538C269.359 72.7947 266.602 71.4681 265.249 69.0157C264.48 67.6221 264.172 65.9359 264.376 64.3075C264.376 64.3075 263.849 63.8656 263.475 63.4692C261.35 61.214 260.474 57.6145 261.318 54.4518C261.825 52.549 262.922 50.8565 264.375 49.706C264.375 49.706 264.317 49.1825 264.312 48.7732C264.276 45.4704 266.559 42.32 269.52 41.7285C270.284 41.5758 271.073 41.5828 271.84 41.7456C271.84 41.7456 271.878 41.3333 271.945 41.0101C272.404 38.793 274.283 37.0529 276.374 37.001C276.413 37.0003 276.453 37 276.493 37.0001ZM272.837 71.5678L272.837 71.5718C272.847 71.6725 272.826 72.0409 272.859 72.3383C273.071 74.1943 274.573 75.7649 276.253 75.8721C278.193 75.9958 280.063 74.15 280.096 71.8738C280.181 61.9671 280.122 52.0595 280.096 42.1524C280.078 40.0603 278.477 38.1423 276.487 38.1213C276.471 38.1213 276.455 38.1213 276.44 38.1213C274.539 38.1414 272.816 39.9921 272.831 42.2331C272.857 42.4617 272.874 42.7116 272.925 42.9351C273.095 43.6636 273.527 44.2931 274.061 44.7628C274.061 44.7628 274.445 45.3838 274.014 45.6806C273.841 45.7998 273.608 45.7841 273.441 45.644C273.409 45.6162 273.409 45.6163 273.378 45.5884C272.633 44.9121 272.101 43.9747 271.908 42.9285C271.757 42.8843 271.593 42.8319 271.433 42.8051C269.274 42.4438 266.975 43.7319 265.943 45.8836C265.393 47.0304 265.202 48.3805 265.388 49.6634C265.447 50.0637 265.628 50.5391 265.847 50.9857C266.321 51.9536 267.111 52.759 268.132 52.9638C268.132 52.9638 268.287 53.0063 268.38 53.0997C268.703 53.4261 268.459 54.1775 267.87 54.0495C266.42 53.7231 265.272 52.4463 264.679 50.8523C263.541 51.8528 262.68 53.248 262.272 54.8014C261.492 57.7682 262.462 61.18 264.676 63.1438C265.255 61.594 266.365 60.2728 267.918 59.9487C267.918 59.9487 267.937 59.9285 268.072 59.936C268.561 59.9915 268.736 60.9074 268.033 61.0658C266.709 61.3751 265.755 62.795 265.401 64.2265C265.378 64.457 265.339 64.7082 265.326 64.9423C265.166 67.8349 267.122 70.6912 269.762 71.1804C270.241 71.2691 270.73 71.2843 271.213 71.2265C271.434 71.1999 271.654 71.1573 271.871 71.0998C272.026 69.9644 272.585 68.9204 273.41 68.1896C273.513 68.0979 273.634 68.0408 273.769 68.0428C274.204 68.0721 274.412 68.7241 273.982 69.1141C273.323 69.7218 272.885 70.5886 272.837 71.5678ZM294.729 72.0184C294.219 72.0292 293.821 72.7675 294.143 73.2859C294.495 73.853 295.594 73.576 295.451 72.6832C295.391 72.3127 295.078 72.0158 294.729 72.0184ZM286.62 67.3762V65.4337C286.624 65.2853 286.675 65.1461 286.767 65.0373L288.876 62.6821C288.983 62.5693 289.123 62.5102 289.275 62.5201C289.507 62.5504 289.54 62.623 289.606 62.7059C289.777 62.9202 289.788 63.2355 289.586 63.4749L287.624 65.6659V67.388C288.523 67.744 289.137 68.9937 288.679 70.0553C288.211 71.1384 286.738 71.4751 285.93 70.6151C285.084 69.7138 285.421 67.8063 286.62 67.3762ZM298.786 59.1286C298.532 59.0551 298.294 58.9161 298.096 58.7052C297.146 57.6935 297.687 55.4129 299.265 55.3793C299.288 55.3792 299.288 55.3792 299.31 55.3793C300.449 55.4036 301.38 56.9035 300.844 58.1454C300.639 58.6205 300.241 58.9521 299.789 59.1019V65.2483C299.781 65.4745 299.773 65.4854 299.642 65.6447L295.853 69.8767C295.704 70.0296 295.692 70.0314 295.498 70.0409H291.065C290.764 70.0262 290.693 69.8819 290.631 69.7606C290.457 69.4241 290.629 68.9409 291.065 68.9197H295.291L298.786 65.0161V59.1286ZM287.113 68.4103C286.495 68.4236 286.084 69.606 286.841 69.9636C287.36 70.2089 288.077 69.5284 287.767 68.8512C287.645 68.5851 287.388 68.4084 287.113 68.4103ZM273.767 61.471C273.845 61.4798 273.857 61.4866 273.891 61.4995C274.073 61.5688 274.195 61.7611 274.232 61.982C274.236 62.0063 274.236 62.0063 274.24 62.0306C274.344 62.5839 274.574 63.1024 274.908 63.5318C275.474 64.2575 276.265 64.7301 277.096 64.9784C277.096 64.9784 277.454 65.1423 277.483 65.4706C277.515 65.8387 277.168 66.1616 276.819 66.0564C275.19 65.5652 273.666 64.2665 273.275 62.3511C273.196 61.9613 273.321 61.5027 273.691 61.4711C273.74 61.4669 273.751 61.4702 273.767 61.471ZM291.054 57.479C291.03 57.5719 290.998 57.6642 290.959 57.7551C290.491 58.8382 289.018 59.1748 288.21 58.3149C287.26 57.303 287.802 55.0226 289.38 54.989C289.402 54.9889 289.402 54.9889 289.424 54.989C290.141 55.0042 290.777 55.6048 291.015 56.3578H291.962C291.973 56.3582 291.984 56.3586 291.994 56.359C292.175 56.3788 292.218 56.4188 292.317 56.522L293.94 58.3349C294.03 58.4426 294.082 58.5823 294.087 58.7313V63.8752C294.076 64.2026 293.993 64.2305 293.894 64.3169C293.599 64.5738 293.098 64.3644 293.083 63.8752V58.9635L291.754 57.479H291.054ZM282.853 48.5617C283.103 48.6032 283.293 48.8335 283.306 49.1197V62.96C283.286 63.4042 282.747 63.6893 282.449 63.3564C282.36 63.2569 282.312 63.1858 282.302 62.96V49.1197C282.316 48.8017 282.549 48.5451 282.853 48.5617ZM299.278 56.5004C298.66 56.5135 298.25 57.6963 299.006 58.0537C299.525 58.299 300.244 57.6203 299.932 56.9413C299.81 56.6751 299.554 56.4985 299.278 56.5004ZM289.393 56.1101C288.773 56.1233 288.371 57.3092 289.121 57.6634C289.649 57.913 290.374 57.2039 290.035 56.5252C289.907 56.2698 289.671 56.1082 289.393 56.1101ZM272.89 55.8673C273.532 55.872 274.177 56.0986 274.649 56.5958C274.948 56.9104 274.783 57.5969 274.318 57.5874C274.049 57.5819 273.872 57.2856 273.624 57.1556C273.01 56.8334 272.286 56.9938 271.687 57.2549C271.687 57.2549 271.418 57.3352 271.235 57.2059C270.925 56.9856 270.953 56.3694 271.345 56.2004C271.363 56.1926 271.381 56.185 271.399 56.1776C271.876 55.9808 272.38 55.8661 272.89 55.8673ZM296.366 43.1146C296.554 43.1423 296.561 43.1579 296.677 43.2767L299.309 46.2159C299.446 46.3828 299.448 46.3965 299.456 46.6122V51.8273C299.447 52.0535 299.44 52.0645 299.309 52.2237L296.055 55.8586C295.524 56.4259 294.785 55.7029 295.345 55.0658L298.452 51.5951V46.8444L296.115 44.2337H295.321C295.321 44.2337 294.872 44.1441 294.824 43.7483C294.786 43.4343 295.027 43.1272 295.321 43.1125H296.322C296.337 43.1132 296.352 43.1139 296.366 43.1146ZM285.869 47.8047C285.616 47.7312 285.377 47.5922 285.179 47.3813C284.229 46.3694 284.771 44.089 286.349 44.0554C286.371 44.0552 286.371 44.0552 286.393 44.0554C287.532 44.0796 288.464 45.5793 287.928 46.8215C287.723 47.2966 287.324 47.6281 286.873 47.7779V49.5196L288.835 51.7105C288.835 51.7105 288.956 51.8678 288.976 52.0257C289.035 52.4758 288.502 52.9009 288.125 52.5033L286.016 50.1482C285.925 50.0404 285.873 49.8994 285.869 49.7518V47.8047ZM273.756 48.0522C273.877 48.0629 273.993 48.1104 274.11 48.1517C275.352 48.5898 276.509 49.452 277.111 50.7755C277.295 51.1802 277.453 51.6186 277.484 52.0642C277.511 52.4652 277.056 52.8313 276.707 52.5751C276.498 52.4207 276.482 52.0902 276.404 51.8046C276.099 50.6869 275.193 49.8449 274.25 49.4025C274.049 49.308 273.842 49.227 273.632 49.163C273.632 49.163 273.275 49.0139 273.233 48.6946C273.19 48.377 273.428 48.0585 273.731 48.0513C273.74 48.0516 273.748 48.0519 273.756 48.0522ZM287.151 38.1212L283.153 42.4513C282.564 42.9941 281.895 42.2743 282.455 41.6464L286.598 37.1582C286.747 37.0106 286.758 37.0091 286.948 37H289.382C289.396 37.0007 289.41 37.0014 289.425 37.002C289.609 37.0284 289.616 37.0439 289.73 37.1563L292.889 40.5451C292.981 40.6523 293.035 40.7305 293.043 40.9494V43.4046C293.942 43.7607 294.556 45.0104 294.098 46.0719C293.631 47.155 292.157 47.4916 291.35 46.6318C290.504 45.7317 290.841 43.8229 292.039 43.3928V41.1883L289.18 38.1212H287.151ZM286.362 45.1765C285.742 45.1897 285.34 46.3755 286.09 46.7298C286.618 46.9794 287.343 46.2703 287.003 45.5917C286.876 45.3362 286.639 45.1745 286.362 45.1765ZM292.556 44.4272C292.543 44.4278 292.53 44.4279 292.517 44.4274C291.905 44.4585 291.516 45.6286 292.26 45.9802C292.788 46.2299 293.514 45.5207 293.174 44.8421C293.05 44.594 292.824 44.4344 292.556 44.4272Z" fill="white"/>
<path d="M140.846 95V87.152H142.418L143.81 90.992C143.898 91.24 143.982 91.496 144.062 91.76C144.15 92.016 144.234 92.272 144.314 92.528H144.362C144.45 92.272 144.534 92.016 144.614 91.76C144.694 91.496 144.774 91.24 144.854 90.992L146.21 87.152H147.794V95H146.51V91.412C146.51 91.164 146.518 90.896 146.534 90.608C146.558 90.312 146.582 90.016 146.606 89.72C146.638 89.424 146.666 89.156 146.69 88.916H146.642L146.006 90.74L144.722 94.268H143.894L142.598 90.74L141.974 88.916H141.926C141.95 89.156 141.974 89.424 141.998 89.72C142.03 90.016 142.054 90.312 142.07 90.608C142.094 90.896 142.106 91.164 142.106 91.412V95H140.846ZM151.095 95.144C150.583 95.144 150.163 94.984 149.835 94.664C149.515 94.344 149.355 93.928 149.355 93.416C149.355 92.784 149.631 92.296 150.183 91.952C150.735 91.6 151.615 91.36 152.823 91.232C152.815 90.92 152.731 90.652 152.571 90.428C152.419 90.196 152.143 90.08 151.743 90.08C151.455 90.08 151.171 90.136 150.891 90.248C150.619 90.36 150.351 90.496 150.087 90.656L149.583 89.732C149.911 89.524 150.279 89.344 150.687 89.192C151.103 89.04 151.543 88.964 152.007 88.964C152.743 88.964 153.291 89.184 153.651 89.624C154.019 90.056 154.203 90.684 154.203 91.508V95H153.063L152.967 94.352H152.919C152.655 94.576 152.371 94.764 152.067 94.916C151.771 95.068 151.447 95.144 151.095 95.144ZM151.539 94.064C151.779 94.064 151.995 94.008 152.187 93.896C152.387 93.776 152.599 93.616 152.823 93.416V92.096C152.023 92.2 151.467 92.356 151.155 92.564C150.843 92.764 150.687 93.012 150.687 93.308C150.687 93.572 150.767 93.764 150.927 93.884C151.087 94.004 151.291 94.064 151.539 94.064ZM158.315 95.144C157.779 95.144 157.295 95.024 156.863 94.784C156.439 94.536 156.099 94.184 155.843 93.728C155.595 93.264 155.471 92.708 155.471 92.06C155.471 91.404 155.607 90.848 155.879 90.392C156.151 89.928 156.511 89.576 156.959 89.336C157.415 89.088 157.903 88.964 158.423 88.964C158.799 88.964 159.127 89.028 159.407 89.156C159.687 89.284 159.935 89.44 160.151 89.624L159.479 90.524C159.327 90.388 159.171 90.284 159.011 90.212C158.851 90.132 158.679 90.092 158.495 90.092C158.023 90.092 157.635 90.272 157.331 90.632C157.035 90.992 156.887 91.468 156.887 92.06C156.887 92.644 157.031 93.116 157.319 93.476C157.615 93.836 157.995 94.016 158.459 94.016C158.691 94.016 158.907 93.968 159.107 93.872C159.315 93.768 159.503 93.648 159.671 93.512L160.235 94.424C159.963 94.664 159.659 94.844 159.323 94.964C158.987 95.084 158.651 95.144 158.315 95.144ZM161.397 95V86.528H162.777V88.712L162.729 89.852C162.977 89.62 163.253 89.416 163.557 89.24C163.861 89.056 164.213 88.964 164.613 88.964C165.245 88.964 165.705 89.168 165.993 89.576C166.281 89.984 166.425 90.56 166.425 91.304V95H165.045V91.484C165.045 90.996 164.973 90.652 164.829 90.452C164.685 90.252 164.449 90.152 164.121 90.152C163.865 90.152 163.637 90.216 163.437 90.344C163.245 90.464 163.025 90.644 162.777 90.884V95H161.397ZM168.089 95V89.108H169.469V95H168.089ZM168.785 88.076C168.537 88.076 168.337 88.004 168.185 87.86C168.033 87.716 167.957 87.524 167.957 87.284C167.957 87.052 168.033 86.864 168.185 86.72C168.337 86.576 168.537 86.504 168.785 86.504C169.033 86.504 169.233 86.576 169.385 86.72C169.537 86.864 169.613 87.052 169.613 87.284C169.613 87.524 169.537 87.716 169.385 87.86C169.233 88.004 169.033 88.076 168.785 88.076ZM171.23 95V89.108H172.37L172.466 89.9H172.514C172.778 89.644 173.066 89.424 173.378 89.24C173.69 89.056 174.046 88.964 174.446 88.964C175.078 88.964 175.538 89.168 175.826 89.576C176.114 89.984 176.258 90.56 176.258 91.304V95H174.878V91.484C174.878 90.996 174.806 90.652 174.662 90.452C174.518 90.252 174.282 90.152 173.954 90.152C173.698 90.152 173.47 90.216 173.27 90.344C173.078 90.464 172.858 90.644 172.61 90.884V95H171.23ZM180.464 95.144C179.92 95.144 179.428 95.024 178.988 94.784C178.548 94.536 178.2 94.184 177.944 93.728C177.688 93.264 177.56 92.708 177.56 92.06C177.56 91.42 177.688 90.868 177.944 90.404C178.208 89.94 178.548 89.584 178.964 89.336C179.38 89.088 179.816 88.964 180.272 88.964C180.808 88.964 181.256 89.084 181.616 89.324C181.976 89.556 182.248 89.884 182.432 90.308C182.616 90.724 182.708 91.208 182.708 91.76C182.708 92.048 182.688 92.272 182.648 92.432H178.904C178.968 92.952 179.156 93.356 179.468 93.644C179.78 93.932 180.172 94.076 180.644 94.076C180.9 94.076 181.136 94.04 181.352 93.968C181.576 93.888 181.796 93.78 182.012 93.644L182.48 94.508C182.2 94.692 181.888 94.844 181.544 94.964C181.2 95.084 180.84 95.144 180.464 95.144ZM178.892 91.496H181.508C181.508 91.04 181.408 90.684 181.208 90.428C181.008 90.164 180.708 90.032 180.308 90.032C179.964 90.032 179.656 90.16 179.384 90.416C179.12 90.664 178.956 91.024 178.892 91.496ZM139.855 107V99.152H141.247V105.824H144.511V107H139.855ZM148.126 107.144C147.582 107.144 147.09 107.024 146.65 106.784C146.21 106.536 145.862 106.184 145.606 105.728C145.35 105.264 145.222 104.708 145.222 104.06C145.222 103.42 145.35 102.868 145.606 102.404C145.87 101.94 146.21 101.584 146.626 101.336C147.042 101.088 147.478 100.964 147.934 100.964C148.47 100.964 148.918 101.084 149.278 101.324C149.638 101.556 149.91 101.884 150.094 102.308C150.278 102.724 150.37 103.208 150.37 103.76C150.37 104.048 150.35 104.272 150.31 104.432H146.566C146.63 104.952 146.818 105.356 147.13 105.644C147.442 105.932 147.834 106.076 148.306 106.076C148.562 106.076 148.798 106.04 149.014 105.968C149.238 105.888 149.458 105.78 149.674 105.644L150.142 106.508C149.862 106.692 149.55 106.844 149.206 106.964C148.862 107.084 148.502 107.144 148.126 107.144ZM146.554 103.496H149.17C149.17 103.04 149.07 102.684 148.87 102.428C148.67 102.164 148.37 102.032 147.97 102.032C147.626 102.032 147.318 102.16 147.046 102.416C146.782 102.664 146.618 103.024 146.554 103.496ZM152.976 107.144C152.464 107.144 152.044 106.984 151.716 106.664C151.396 106.344 151.236 105.928 151.236 105.416C151.236 104.784 151.512 104.296 152.064 103.952C152.616 103.6 153.496 103.36 154.704 103.232C154.696 102.92 154.612 102.652 154.452 102.428C154.3 102.196 154.024 102.08 153.624 102.08C153.336 102.08 153.052 102.136 152.772 102.248C152.5 102.36 152.232 102.496 151.968 102.656L151.464 101.732C151.792 101.524 152.16 101.344 152.568 101.192C152.984 101.04 153.424 100.964 153.888 100.964C154.624 100.964 155.172 101.184 155.532 101.624C155.9 102.056 156.084 102.684 156.084 103.508V107H154.944L154.848 106.352H154.8C154.536 106.576 154.252 106.764 153.948 106.916C153.652 107.068 153.328 107.144 152.976 107.144ZM153.42 106.064C153.66 106.064 153.876 106.008 154.068 105.896C154.268 105.776 154.48 105.616 154.704 105.416V104.096C153.904 104.2 153.348 104.356 153.036 104.564C152.724 104.764 152.568 105.012 152.568 105.308C152.568 105.572 152.648 105.764 152.808 105.884C152.968 106.004 153.172 106.064 153.42 106.064ZM157.735 107V101.108H158.875L158.971 102.152H159.019C159.227 101.768 159.479 101.476 159.775 101.276C160.071 101.068 160.375 100.964 160.687 100.964C160.967 100.964 161.191 101.004 161.359 101.084L161.119 102.284C161.015 102.252 160.919 102.228 160.831 102.212C160.743 102.196 160.635 102.188 160.507 102.188C160.275 102.188 160.031 102.28 159.775 102.464C159.519 102.64 159.299 102.952 159.115 103.4V107H157.735ZM162.212 107V101.108H163.352L163.448 101.9H163.496C163.76 101.644 164.048 101.424 164.36 101.24C164.672 101.056 165.028 100.964 165.428 100.964C166.06 100.964 166.52 101.168 166.808 101.576C167.096 101.984 167.24 102.56 167.24 103.304V107H165.86V103.484C165.86 102.996 165.788 102.652 165.644 102.452C165.5 102.252 165.264 102.152 164.936 102.152C164.68 102.152 164.452 102.216 164.252 102.344C164.06 102.464 163.84 102.644 163.592 102.884V107H162.212ZM168.927 107V101.108H170.307V107H168.927ZM169.623 100.076C169.375 100.076 169.175 100.004 169.023 99.86C168.871 99.716 168.795 99.524 168.795 99.284C168.795 99.052 168.871 98.864 169.023 98.72C169.175 98.576 169.375 98.504 169.623 98.504C169.871 98.504 170.071 98.576 170.223 98.72C170.375 98.864 170.451 99.052 170.451 99.284C170.451 99.524 170.375 99.716 170.223 99.86C170.071 100.004 169.871 100.076 169.623 100.076ZM172.067 107V101.108H173.207L173.303 101.9H173.351C173.615 101.644 173.903 101.424 174.215 101.24C174.527 101.056 174.883 100.964 175.283 100.964C175.915 100.964 176.375 101.168 176.663 101.576C176.951 101.984 177.095 102.56 177.095 103.304V107H175.715V103.484C175.715 102.996 175.643 102.652 175.499 102.452C175.355 102.252 175.119 102.152 174.791 102.152C174.535 102.152 174.307 102.216 174.107 102.344C173.915 102.464 173.695 102.644 173.447 102.884V107H172.067ZM180.834 109.604C180.37 109.604 179.95 109.548 179.574 109.436C179.206 109.324 178.914 109.152 178.698 108.92C178.49 108.696 178.386 108.412 178.386 108.068C178.386 107.58 178.666 107.16 179.226 106.808V106.76C179.074 106.664 178.946 106.536 178.842 106.376C178.746 106.216 178.698 106.016 178.698 105.776C178.698 105.544 178.762 105.336 178.89 105.152C179.026 104.96 179.178 104.804 179.346 104.684V104.636C179.146 104.484 178.966 104.272 178.806 104C178.654 103.728 178.578 103.42 178.578 103.076C178.578 102.62 178.686 102.236 178.902 101.924C179.118 101.612 179.402 101.376 179.754 101.216C180.114 101.048 180.498 100.964 180.906 100.964C181.066 100.964 181.218 100.98 181.362 101.012C181.514 101.036 181.65 101.068 181.77 101.108H183.882V102.128H182.802C182.898 102.24 182.978 102.384 183.042 102.56C183.106 102.728 183.138 102.916 183.138 103.124C183.138 103.556 183.038 103.924 182.838 104.228C182.638 104.524 182.37 104.748 182.034 104.9C181.698 105.052 181.322 105.128 180.906 105.128C180.778 105.128 180.646 105.116 180.51 105.092C180.374 105.068 180.238 105.028 180.102 104.972C180.014 105.052 179.942 105.132 179.886 105.212C179.838 105.292 179.814 105.4 179.814 105.536C179.814 105.704 179.882 105.836 180.018 105.932C180.162 106.028 180.414 106.076 180.774 106.076H181.818C182.53 106.076 183.066 106.192 183.426 106.424C183.794 106.648 183.978 107.016 183.978 107.528C183.978 107.912 183.85 108.26 183.594 108.572C183.338 108.892 182.974 109.144 182.502 109.328C182.03 109.512 181.474 109.604 180.834 109.604ZM180.906 104.264C181.186 104.264 181.426 104.16 181.626 103.952C181.826 103.744 181.926 103.452 181.926 103.076C181.926 102.708 181.826 102.424 181.626 102.224C181.434 102.016 181.194 101.912 180.906 101.912C180.618 101.912 180.374 102.012 180.174 102.212C179.974 102.412 179.874 102.7 179.874 103.076C179.874 103.452 179.974 103.744 180.174 103.952C180.374 104.16 180.618 104.264 180.906 104.264ZM181.05 108.704C181.522 108.704 181.906 108.608 182.202 108.416C182.498 108.224 182.646 108.004 182.646 107.756C182.646 107.524 182.554 107.368 182.37 107.288C182.194 107.208 181.938 107.168 181.602 107.168H180.798C180.478 107.168 180.21 107.14 179.994 107.084C179.69 107.316 179.538 107.576 179.538 107.864C179.538 108.128 179.674 108.332 179.946 108.476C180.218 108.628 180.586 108.704 181.05 108.704Z" fill="white"/>
<path d="M268.277 95V87.152H270.377C271.577 87.152 272.513 87.476 273.185 88.124C273.857 88.772 274.193 89.744 274.193 91.04C274.193 92.344 273.861 93.332 273.197 94.004C272.533 94.668 271.617 95 270.449 95H268.277ZM269.669 93.872H270.281C271.073 93.872 271.685 93.644 272.117 93.188C272.549 92.724 272.765 92.008 272.765 91.04C272.765 90.08 272.549 89.38 272.117 88.94C271.685 88.5 271.073 88.28 270.281 88.28H269.669V93.872ZM278.177 95.144C277.633 95.144 277.141 95.024 276.701 94.784C276.261 94.536 275.913 94.184 275.657 93.728C275.401 93.264 275.273 92.708 275.273 92.06C275.273 91.42 275.401 90.868 275.657 90.404C275.921 89.94 276.261 89.584 276.677 89.336C277.093 89.088 277.529 88.964 277.985 88.964C278.521 88.964 278.969 89.084 279.329 89.324C279.689 89.556 279.961 89.884 280.145 90.308C280.329 90.724 280.421 91.208 280.421 91.76C280.421 92.048 280.401 92.272 280.361 92.432H276.617C276.681 92.952 276.869 93.356 277.181 93.644C277.493 93.932 277.885 94.076 278.357 94.076C278.613 94.076 278.849 94.04 279.065 93.968C279.289 93.888 279.509 93.78 279.725 93.644L280.193 94.508C279.913 94.692 279.601 94.844 279.257 94.964C278.913 95.084 278.553 95.144 278.177 95.144ZM276.605 91.496H279.221C279.221 91.04 279.121 90.684 278.921 90.428C278.721 90.164 278.421 90.032 278.021 90.032C277.677 90.032 277.369 90.16 277.097 90.416C276.833 90.664 276.669 91.024 276.605 91.496ZM284.259 95.144C283.715 95.144 283.223 95.024 282.783 94.784C282.343 94.536 281.995 94.184 281.739 93.728C281.483 93.264 281.355 92.708 281.355 92.06C281.355 91.42 281.483 90.868 281.739 90.404C282.003 89.94 282.343 89.584 282.759 89.336C283.175 89.088 283.611 88.964 284.067 88.964C284.603 88.964 285.051 89.084 285.411 89.324C285.771 89.556 286.043 89.884 286.227 90.308C286.411 90.724 286.503 91.208 286.503 91.76C286.503 92.048 286.483 92.272 286.443 92.432H282.699C282.763 92.952 282.951 93.356 283.263 93.644C283.575 93.932 283.967 94.076 284.439 94.076C284.695 94.076 284.931 94.04 285.147 93.968C285.371 93.888 285.591 93.78 285.807 93.644L286.275 94.508C285.995 94.692 285.683 94.844 285.339 94.964C284.995 95.084 284.635 95.144 284.259 95.144ZM282.687 91.496H285.303C285.303 91.04 285.203 90.684 285.003 90.428C284.803 90.164 284.503 90.032 284.103 90.032C283.759 90.032 283.451 90.16 283.179 90.416C282.915 90.664 282.751 91.024 282.687 91.496ZM287.821 97.328V89.108H288.961L289.057 89.732H289.105C289.353 89.524 289.629 89.344 289.933 89.192C290.245 89.04 290.561 88.964 290.881 88.964C291.617 88.964 292.185 89.236 292.585 89.78C292.993 90.324 293.197 91.052 293.197 91.964C293.197 92.636 293.077 93.212 292.837 93.692C292.597 94.164 292.285 94.524 291.901 94.772C291.525 95.02 291.117 95.144 290.677 95.144C290.421 95.144 290.165 95.088 289.909 94.976C289.653 94.856 289.405 94.696 289.165 94.496L289.201 95.48V97.328H287.821ZM290.389 94.004C290.781 94.004 291.109 93.832 291.373 93.488C291.637 93.144 291.769 92.64 291.769 91.976C291.769 91.384 291.669 90.924 291.469 90.596C291.269 90.268 290.945 90.104 290.497 90.104C290.081 90.104 289.649 90.324 289.201 90.764V93.512C289.417 93.688 289.625 93.816 289.825 93.896C290.025 93.968 290.213 94.004 290.389 94.004ZM258.855 107V99.152H260.247V105.824H263.511V107H258.855ZM267.126 107.144C266.582 107.144 266.09 107.024 265.65 106.784C265.21 106.536 264.862 106.184 264.606 105.728C264.35 105.264 264.222 104.708 264.222 104.06C264.222 103.42 264.35 102.868 264.606 102.404C264.87 101.94 265.21 101.584 265.626 101.336C266.042 101.088 266.478 100.964 266.934 100.964C267.47 100.964 267.918 101.084 268.278 101.324C268.638 101.556 268.91 101.884 269.094 102.308C269.278 102.724 269.37 103.208 269.37 103.76C269.37 104.048 269.35 104.272 269.31 104.432H265.566C265.63 104.952 265.818 105.356 266.13 105.644C266.442 105.932 266.834 106.076 267.306 106.076C267.562 106.076 267.798 106.04 268.014 105.968C268.238 105.888 268.458 105.78 268.674 105.644L269.142 106.508C268.862 106.692 268.55 106.844 268.206 106.964C267.862 107.084 267.502 107.144 267.126 107.144ZM265.554 103.496H268.17C268.17 103.04 268.07 102.684 267.87 102.428C267.67 102.164 267.37 102.032 266.97 102.032C266.626 102.032 266.318 102.16 266.046 102.416C265.782 102.664 265.618 103.024 265.554 103.496ZM271.976 107.144C271.464 107.144 271.044 106.984 270.716 106.664C270.396 106.344 270.236 105.928 270.236 105.416C270.236 104.784 270.512 104.296 271.064 103.952C271.616 103.6 272.496 103.36 273.704 103.232C273.696 102.92 273.612 102.652 273.452 102.428C273.3 102.196 273.024 102.08 272.624 102.08C272.336 102.08 272.052 102.136 271.772 102.248C271.5 102.36 271.232 102.496 270.968 102.656L270.464 101.732C270.792 101.524 271.16 101.344 271.568 101.192C271.984 101.04 272.424 100.964 272.888 100.964C273.624 100.964 274.172 101.184 274.532 101.624C274.9 102.056 275.084 102.684 275.084 103.508V107H273.944L273.848 106.352H273.8C273.536 106.576 273.252 106.764 272.948 106.916C272.652 107.068 272.328 107.144 271.976 107.144ZM272.42 106.064C272.66 106.064 272.876 106.008 273.068 105.896C273.268 105.776 273.48 105.616 273.704 105.416V104.096C272.904 104.2 272.348 104.356 272.036 104.564C271.724 104.764 271.568 105.012 271.568 105.308C271.568 105.572 271.648 105.764 271.808 105.884C271.968 106.004 272.172 106.064 272.42 106.064ZM276.735 107V101.108H277.875L277.971 102.152H278.019C278.227 101.768 278.479 101.476 278.775 101.276C279.071 101.068 279.375 100.964 279.687 100.964C279.967 100.964 280.191 101.004 280.359 101.084L280.119 102.284C280.015 102.252 279.919 102.228 279.831 102.212C279.743 102.196 279.635 102.188 279.507 102.188C279.275 102.188 279.031 102.28 278.775 102.464C278.519 102.64 278.299 102.952 278.115 103.4V107H276.735ZM281.212 107V101.108H282.352L282.448 101.9H282.496C282.76 101.644 283.048 101.424 283.36 101.24C283.672 101.056 284.028 100.964 284.428 100.964C285.06 100.964 285.52 101.168 285.808 101.576C286.096 101.984 286.24 102.56 286.24 103.304V107H284.86V103.484C284.86 102.996 284.788 102.652 284.644 102.452C284.5 102.252 284.264 102.152 283.936 102.152C283.68 102.152 283.452 102.216 283.252 102.344C283.06 102.464 282.84 102.644 282.592 102.884V107H281.212ZM287.927 107V101.108H289.307V107H287.927ZM288.623 100.076C288.375 100.076 288.175 100.004 288.023 99.86C287.871 99.716 287.795 99.524 287.795 99.284C287.795 99.052 287.871 98.864 288.023 98.72C288.175 98.576 288.375 98.504 288.623 98.504C288.871 98.504 289.071 98.576 289.223 98.72C289.375 98.864 289.451 99.052 289.451 99.284C289.451 99.524 289.375 99.716 289.223 99.86C289.071 100.004 288.871 100.076 288.623 100.076ZM291.067 107V101.108H292.207L292.303 101.9H292.351C292.615 101.644 292.903 101.424 293.215 101.24C293.527 101.056 293.883 100.964 294.283 100.964C294.915 100.964 295.375 101.168 295.663 101.576C295.951 101.984 296.095 102.56 296.095 103.304V107H294.715V103.484C294.715 102.996 294.643 102.652 294.499 102.452C294.355 102.252 294.119 102.152 293.791 102.152C293.535 102.152 293.307 102.216 293.107 102.344C292.915 102.464 292.695 102.644 292.447 102.884V107H291.067ZM299.834 109.604C299.37 109.604 298.95 109.548 298.574 109.436C298.206 109.324 297.914 109.152 297.698 108.92C297.49 108.696 297.386 108.412 297.386 108.068C297.386 107.58 297.666 107.16 298.226 106.808V106.76C298.074 106.664 297.946 106.536 297.842 106.376C297.746 106.216 297.698 106.016 297.698 105.776C297.698 105.544 297.762 105.336 297.89 105.152C298.026 104.96 298.178 104.804 298.346 104.684V104.636C298.146 104.484 297.966 104.272 297.806 104C297.654 103.728 297.578 103.42 297.578 103.076C297.578 102.62 297.686 102.236 297.902 101.924C298.118 101.612 298.402 101.376 298.754 101.216C299.114 101.048 299.498 100.964 299.906 100.964C300.066 100.964 300.218 100.98 300.362 101.012C300.514 101.036 300.65 101.068 300.77 101.108H302.882V102.128H301.802C301.898 102.24 301.978 102.384 302.042 102.56C302.106 102.728 302.138 102.916 302.138 103.124C302.138 103.556 302.038 103.924 301.838 104.228C301.638 104.524 301.37 104.748 301.034 104.9C300.698 105.052 300.322 105.128 299.906 105.128C299.778 105.128 299.646 105.116 299.51 105.092C299.374 105.068 299.238 105.028 299.102 104.972C299.014 105.052 298.942 105.132 298.886 105.212C298.838 105.292 298.814 105.4 298.814 105.536C298.814 105.704 298.882 105.836 299.018 105.932C299.162 106.028 299.414 106.076 299.774 106.076H300.818C301.53 106.076 302.066 106.192 302.426 106.424C302.794 106.648 302.978 107.016 302.978 107.528C302.978 107.912 302.85 108.26 302.594 108.572C302.338 108.892 301.974 109.144 301.502 109.328C301.03 109.512 300.474 109.604 299.834 109.604ZM299.906 104.264C300.186 104.264 300.426 104.16 300.626 103.952C300.826 103.744 300.926 103.452 300.926 103.076C300.926 102.708 300.826 102.424 300.626 102.224C300.434 102.016 300.194 101.912 299.906 101.912C299.618 101.912 299.374 102.012 299.174 102.212C298.974 102.412 298.874 102.7 298.874 103.076C298.874 103.452 298.974 103.744 299.174 103.952C299.374 104.16 299.618 104.264 299.906 104.264ZM300.05 108.704C300.522 108.704 300.906 108.608 301.202 108.416C301.498 108.224 301.646 108.004 301.646 107.756C301.646 107.524 301.554 107.368 301.37 107.288C301.194 107.208 300.938 107.168 300.602 107.168H299.798C299.478 107.168 299.21 107.14 298.994 107.084C298.69 107.316 298.538 107.576 298.538 107.864C298.538 108.128 298.674 108.332 298.946 108.476C299.218 108.628 299.586 108.704 300.05 108.704Z" fill="white"/>
</svg>
